<svg width="1718" height="103" viewBox="0 0 1718 103" fill="none" xmlns="http://www.w3.org/2000/svg">
<path d="M106.8 2.33322C104.933 4.33322 104.667 9.79989 104.667 50.8666C104.667 101.533 104.533 101 112.267 100.067L116 99.6666L116.4 73.1332C116.533 56.1999 117.2 45.9332 118.133 44.7332C119.333 43.3999 131.867 42.9999 182.267 42.9999C244.667 42.9999 248.8 43.2666 251.6 47.5332C252.133 48.3332 252.667 59.3999 252.667 72.0666C252.667 85.3999 253.2 96.1999 254 97.7999C255.6 100.467 262.533 101.4 264 98.9999C264.533 98.1999 264.8 85.7999 264.667 71.3999C264.533 42.8666 264.133 40.7332 256.4 34.9999C250 30.1999 240.933 29.6666 178.933 29.7999C146 29.7999 118.667 29.5332 118.267 28.9999C117.733 28.4666 117.067 22.0666 116.667 14.5999C116 1.13322 116 0.999889 112.533 0.599889C110.533 0.333222 108 1.13322 106.8 2.33322Z" fill="black"/>
<path d="M721.6 3.93321C721.067 4.33321 720.667 25.6665 720.667 51.1332V97.5332L723.6 99.5332C727.333 102.2 728.8 102.2 732.133 99.7999C734.4 98.0666 734.8 95.6666 735.333 78.7332L736 59.6666L745.333 59.2666C755.067 58.8666 756.933 59.7999 760.8 67.6666C761.467 69.1332 763.2 72.0666 764.667 74.3332C766.133 76.4666 767.867 79.5332 768.667 80.9999C773.333 90.0666 778.267 97.2666 781.067 99.5332C785.067 102.467 789.6 101.4 791.466 97.1332C792.666 94.5999 791.466 91.7999 783.333 77.9332C773.733 61.6666 772.533 57.3999 777.333 56.5999C782.8 55.6666 788.4 51.7999 792.533 45.6665C796.266 40.0665 796.8 38.3332 796.8 30.4665C796.8 23.9332 796.133 20.4665 794.133 17.2665C790.133 10.8665 784.4 5.79988 779.2 4.33321C774.133 2.86655 722.933 2.46655 721.6 3.93321ZM778.667 20.9999C785.067 27.5332 785.2 33.3999 778.8 39.7999L774.133 44.4665L755.067 44.0665L736 43.6665L735.6 31.7999C735.333 25.2665 735.467 19.1332 735.867 18.0665C736.4 16.7332 740.933 16.3332 755.2 16.3332H773.867L778.667 20.9999Z" fill="black"/>
<path d="M12.6665 6.59991C10.7999 7.79991 7.46654 11.1332 5.3332 14.1999L1.3332 19.6666L0.933205 50.9999C0.533205 80.4666 0.666538 82.5999 3.3332 87.7999C4.79987 90.8666 8.1332 94.9999 10.6665 96.8666L15.1999 100.333H45.8665H76.6665V73.9333C76.6665 46.7332 76.2665 44.3332 71.1999 44.3332C65.4665 44.3332 64.6665 47.5332 64.6665 68.4666V88.3333H42.2665C11.3332 88.3333 13.3332 90.8666 13.3332 52.0666V22.7332L17.0665 19.5332C20.7999 16.3332 21.1999 16.3332 47.1999 16.3332C74.7999 16.3332 76.6665 15.9332 76.6665 10.3332C76.6665 4.59991 74.9332 4.33325 44.7999 4.46658C21.3332 4.59991 15.3332 4.99991 12.6665 6.59991Z" fill="black"/>
<path d="M1016.27 10.7333C1014.27 12.8667 1014 17.2667 1014 45C1014 80.0667 1014.67 84.2 1021.47 92.2C1028.53 100.333 1035.73 103 1050.4 103C1063.87 103 1067.33 101.4 1067.33 95.4C1067.33 89.9333 1063.33 88.3333 1050.27 88.3333C1038.13 88.3333 1038.13 88.3333 1033.33 83.6667L1028.67 78.8667V61.6667V44.3333H1041.87C1054.4 44.3333 1055.07 44.2 1057.2 41C1062.53 33 1058.4 29.9333 1042 29.4L1029.33 29L1028.93 21.6667C1028.27 10.6 1021.6 4.86666 1016.27 10.7333Z" fill="black"/>
<path d="M1666.93 10.7333C1664.93 12.8667 1664.67 17.4 1664.67 45.9333C1664.67 82.8667 1665.47 86.7333 1674.67 94.8667C1682.13 101.4 1687.47 103 1701.33 103C1711.47 103 1714 102.6 1715.73 100.6C1718.67 97.2667 1718.53 94.2 1715.33 91C1713.07 88.7333 1710.93 88.3333 1700.8 88.3333C1690 88.3333 1688.53 88.0667 1684.93 85C1680 80.8667 1679.33 78.2 1679.07 59.6667L1678.8 45L1692.53 44.3333C1704.13 43.8 1706.53 43.2667 1708.13 41.1333C1710.67 37.5333 1710.53 35.5333 1707.33 32.3333C1705.07 30.0667 1702.93 29.6667 1693.73 29.6667C1687.6 29.6667 1681.87 29.1333 1680.8 28.4667C1679.73 27.8 1678.93 24.4667 1678.67 20.7333C1678.53 17 1677.6 12.7333 1676.8 11.2667C1674.93 7.66666 1669.87 7.4 1666.93 10.7333Z" fill="black"/>
<path d="M294.8 31.2666C293.067 33.7999 292.933 34.5999 294.533 36.9999C296.133 39.3999 298 39.6666 316.267 40.3333C337.467 40.9999 341.2 42.1999 340.4 47.5333C340 50.1999 338.933 50.3333 323.067 50.9999C306.533 51.6666 306 51.7999 301.867 55.6666C293.067 63.9333 290.4 76.0666 295.2 86.3333C298 92.5999 303.867 98.7333 307.867 99.7999C309.467 100.067 320.533 100.2 332.667 100.067L354.667 99.6666L355.067 75.6666C355.6 43.5333 353.733 36.7332 342.667 30.8666C338.667 28.7332 335.067 28.3332 317.467 28.3332C297.733 28.3332 296.667 28.4666 294.8 31.2666ZM340.4 64.1999C341.6 64.8666 342 68.3333 341.733 76.4666L341.333 87.6666L326.4 88.0666C311.733 88.4666 311.6 88.3333 308.8 84.8666C303.867 78.5999 305.467 66.8666 311.733 64.3333C315.467 62.8666 338.133 62.7333 340.4 64.1999Z" fill="black"/>
<path d="M384.667 31.0001C383.067 33.9334 383.867 40.4668 386.667 48.3334C387.6 50.8668 389.333 56.6001 390.667 61.0001C392 65.4001 393.733 71.1334 394.8 73.6668C395.733 76.2001 396.8 79.8001 397.2 81.6668C398.267 86.8668 404.4 95.5334 408.933 98.0668C414.533 101.267 425.2 101 430.8 97.5334C436.667 93.9334 439.6 89.5334 442.533 79.6668C443.867 75.2668 445.733 69.6668 446.8 67.2668C447.867 64.8668 448.667 61.8001 448.667 60.3334C448.667 58.8668 449.467 55.8001 450.533 53.4001C451.6 51.0001 453.467 45.5334 454.8 41.4001C457.067 34.0668 457.067 33.6668 454.667 31.0001C452 27.9334 448.267 27.5334 446.4 29.9334C444.667 32.3334 441.467 40.8668 438.667 50.3334C437.467 54.7334 435.733 59.8001 435.067 61.6668C434.267 63.5334 433.2 67.1334 432.533 69.6668C429.6 82.8668 425.733 88.2001 419.067 88.3334C415.067 88.3334 410.4 83.4001 409.2 77.8001C408.8 75.9334 407.733 72.2001 406.8 69.6668C405.733 67.1334 404 61.4001 402.667 57.0001C401.467 52.6001 399.6 47.0001 398.533 44.6001C397.467 42.2001 396.667 39.1334 396.667 37.8001C396.667 34.3334 391.6 28.3334 388.667 28.3334C387.2 28.3334 385.467 29.5334 384.667 31.0001Z" fill="black"/>
<path d="M486.267 29.9332C485.333 30.8666 484.667 32.7332 484.667 34.3332C484.667 39.7999 486.933 40.3332 507.333 40.3332C526.133 40.3332 526.933 40.4666 529.867 43.3999C535.467 49.3999 532.933 50.7332 514.267 51.2666C498.933 51.6666 496.933 51.9332 493.333 54.7332C486.4 60.1999 484.667 64.5999 484.667 76.4666V87.1333L491.333 93.7999L498 100.333L521.6 100.067L545.333 99.6666V71.5333C545.333 43.7999 545.333 43.3999 542 38.5999C535.867 29.5332 531.733 28.3332 508.4 28.3332C494.267 28.3332 487.333 28.8666 486.267 29.9332ZM532.4 75.9333L532.8 88.3333H517.867C504.267 88.3333 502.533 88.0666 499.733 85.3999C497.333 83.1333 496.667 81.1333 496.667 75.6666C496.667 64.5999 499.467 62.9999 518.667 63.3999L532 63.6666L532.4 75.9333Z" fill="black"/>
<path d="M583.2 32.5999C574.267 39.6666 572.8 44.8666 572.8 71.6666C572.667 96.5999 573.6 100.333 580.133 100.333C585.2 100.333 586 95.9333 586 70.4666C586 47.7999 586 47.2666 589.333 43.7999C592 40.8666 593.6 40.3332 599.6 40.3332C604.8 40.4666 607.6 41.1332 610 43.1332C613.333 45.9332 613.333 46.0666 613.467 71.1333C613.6 88.9999 614.133 96.9999 615.333 98.3333C617.733 101.133 622.933 100.867 624.667 97.7999C625.467 96.1999 626 85.3999 626 72.0666C626 52.4666 626.4 48.4666 628.267 45.6666C631.467 40.8666 632.667 40.3332 640 40.3332C644.533 40.3332 647.733 41.2666 650 42.9999C653.333 45.5332 653.333 45.6666 654 71.2666C654.4 85.3999 655.2 97.7999 655.733 98.5999C656.4 99.5333 658.533 100.333 660.667 100.333C666 100.333 666.267 98.7333 665.733 68.0666C665.333 38.9999 664.933 37.6666 655.333 31.6666C648.4 27.2666 634.667 26.9999 625.6 30.9999L619.467 33.7999L614.133 30.9999C610.133 28.9999 606.133 28.3332 598.8 28.3332C589.6 28.3332 588.4 28.7332 583.2 32.5999Z" fill="black"/>
<path d="M825.333 34.1999C824.8 36.5999 824.666 48.9999 824.933 61.7999C825.466 87.7999 826.4 90.7333 834.933 97.3999C839.733 101 840 101 863.466 101.4C889.6 101.933 892.666 101.267 892.666 95.2666C892.666 88.7333 891.2 88.3333 868 88.3333C842.933 88.3333 840.266 87.3999 840.933 79.2666L841.333 74.3333L858.666 74.1999C868.266 74.1999 878.133 73.6666 880.666 73.1333C890.533 70.7333 896.533 62.5999 896.666 51.3999C896.666 45.6666 896 43.6666 892.4 38.8666C886 30.5999 882.666 29.9333 852.4 29.7999L826.133 29.6666L825.333 34.1999ZM881.066 47.9333C883.066 51.9333 882.8 54.3333 879.6 57.9333C877.866 60.0666 875.066 60.3333 859.2 60.3333H840.933L840.4 53.6666C840.266 49.9333 840.266 46.3333 840.4 45.6666C840.666 44.8666 848.533 44.3333 860.133 44.3333H879.2L881.066 47.9333Z" fill="black"/>
<path d="M935.333 32.0667C930.667 34.3333 924.667 42.8667 924.667 47.4C924.667 51 928.8 59.2667 932 61.9333C934.667 64.2 939.2 66.2 950.4 70.4667C953.467 71.6667 957.6 73.4 959.6 74.4667C961.467 75.5333 963.867 76.3333 964.933 76.3333C966 76.3333 968.267 77.9333 970.133 79.8L973.333 83.2667L970.133 85.8C967.467 88.0667 964.8 88.3333 948 88.3333C932.4 88.3333 928.533 88.7333 926.8 90.4667C923.733 93.5333 924.133 97.2667 928 99.8C930.667 101.533 934.667 101.8 953.2 101.4L975.333 101L980.267 95.9333C985.2 91.1333 985.333 90.6 985.2 82.0667C985.2 73.5333 984.933 73 980.4 69.1333C977.733 66.8667 972.667 63.9333 969.067 62.6C943.6 52.8667 940.667 51.2667 940.667 47.5333V44.3333H959.733C976.667 44.3333 979.2 44.0667 981.067 41.9333C984 38.7333 983.867 34.6 980.933 31.9333C977.333 28.6 942.133 28.7333 935.333 32.0667Z" fill="black"/>
<path d="M1099.07 31.5333C1096 33.8 1096 39.2667 1099.07 42.0667C1101.2 43.9333 1105.07 44.3333 1124.4 44.3333C1146 44.3333 1147.33 44.4667 1148.67 47C1149.47 48.6 1150 51.6667 1149.73 54.0667L1149.33 58.3333L1129.33 59C1117.73 59.4 1108.13 60.3333 1106.53 61.2667C1105.07 62.2 1102.13 65 1100.13 67.6667C1097.07 71.6667 1096.4 73.8 1096.4 80.3333C1096.4 88.7333 1098.27 92.3333 1105.6 98.0667C1109.07 100.867 1110.53 101 1136.67 101H1164L1164.4 73.9333C1164.67 51.1333 1164.4 46.3333 1162.53 42.6C1156.53 30.8667 1152.93 29.6667 1124.13 29.6667C1107.33 29.8 1100.67 30.2 1099.07 31.5333ZM1147.87 73.1333C1150.93 74.3333 1150.93 86.3333 1147.87 87.5333C1146.67 87.9333 1138.93 88.3333 1130.67 88.3333C1116.67 88.3333 1115.2 88.0667 1112.67 85.4C1109.2 81.6667 1109.33 77.9333 1112.93 74.8667C1115.33 72.7333 1118 72.3333 1130.8 72.3333C1139.07 72.3333 1146.67 72.7333 1147.87 73.1333Z" fill="black"/>
<path d="M1194.93 32.0667C1191.6 35.8 1191.6 71.1334 1195.07 78.4667C1198.93 87.2667 1202 90.7334 1209.6 95.8C1216.4 100.333 1217.47 100.6 1227.73 100.6C1240.67 100.733 1246.8 98.2 1254.53 89.6667C1263.47 79.8 1264.67 75.5334 1264.67 53.5334C1264.67 36.3334 1264.4 33.8 1262.27 31.9334C1258.93 28.8667 1256.27 29.1334 1253.2 32.4667C1251.07 34.8667 1250.53 38.0667 1250 55C1249.33 74.8667 1249.33 74.8667 1245.33 79C1239.87 84.7334 1235.2 87 1228.67 87C1217.87 87 1209.73 79.8 1207.47 68.2C1206.53 64.0667 1206 55 1206.13 47.9334C1206.4 37.1334 1206 34.6 1204 32.3334C1200.93 29 1197.73 28.8667 1194.93 32.0667Z" fill="black"/>
<path d="M1313.87 31.5334C1306.53 33.8001 1299.6 39.8001 1296 47.0001C1292.8 53.2668 1292.67 54.8668 1292.67 75.4001C1292.67 90.4668 1293.2 97.6668 1294.27 98.7334C1296.67 101.133 1304.27 100.733 1305.2 98.2001C1305.6 97.0001 1306 88.6001 1306 79.5334C1306 58.7334 1307.47 52.2001 1313.33 47.6668L1317.87 44.3334H1376.4H1435.07L1437.2 41.0001C1440 36.7334 1439.87 34.6001 1436.93 31.9334C1434.67 29.9334 1428.67 29.6668 1376.53 29.8001C1337.07 29.9334 1317.2 30.4668 1313.87 31.5334Z" fill="black"/>
<path d="M1471.07 31.5334C1468 33.8001 1468 39.2667 1471.07 42.0667C1473.07 43.9334 1477.47 44.3334 1496.67 44.6001L1519.73 45.0001L1521.07 48.7334C1521.73 50.7334 1521.87 53.8001 1521.47 55.5334C1520.67 58.7334 1520.4 58.7334 1500.13 59.1334L1479.47 59.6667L1474.67 64.3334C1466.13 72.6001 1465.33 85.8001 1472.93 94.4667C1478.53 100.867 1483.6 101.8 1511.6 101.4L1536 101L1536.4 74.0667C1536.67 50.3334 1536.4 46.6001 1534.4 42.7334C1531.33 37.0001 1527.6 33.2667 1522.93 31.2667C1517.47 28.8667 1474.13 29.1334 1471.07 31.5334ZM1520.4 73.9334C1521.33 74.8667 1522 77.6667 1522 80.3334C1522 87.8001 1520.67 88.3334 1503.07 88.3334C1488 88.3334 1487.07 88.2001 1484 85.0001C1479.73 80.8667 1479.87 78.6001 1484.13 75.1334C1487.33 72.6001 1489.47 72.3334 1503.2 72.3334C1513.6 72.3334 1519.33 72.8667 1520.4 73.9334Z" fill="black"/>
<path d="M1588.27 32.3334C1584 33.6668 1575.73 39.4001 1572.27 43.5334C1566 51.1334 1564.67 57.0001 1564.67 78.4668C1564.67 97.2668 1564.93 99.0001 1567.2 100.333C1570.8 102.2 1573.47 102.067 1575.87 99.5334C1577.6 97.9334 1578 94.2001 1578 81.1334C1578 58.7334 1580.4 52.6001 1591.6 46.8668C1598.13 43.5334 1604.27 43.6668 1610.27 47.4001C1620.13 53.5334 1621.2 56.0668 1621.73 75.5334C1622.27 96.8668 1622.53 98.7334 1626.67 100.6C1629.2 101.8 1630.53 101.533 1633.33 99.8001C1636.67 97.6668 1636.67 97.4001 1636.67 79.6668C1636.67 64.7334 1636.27 60.6001 1633.87 54.8668C1630.13 45.4001 1627.07 41.2668 1619.6 36.2001C1614.13 32.4668 1612 31.9334 1602.67 31.5334C1596.8 31.2668 1590.27 31.6668 1588.27 32.3334Z" fill="black"/>
</svg>
