<svg width="1721" height="274" viewBox="0 0 1721 274" fill="none" xmlns="http://www.w3.org/2000/svg">
<path d="M228.933 4.86672L224 9.40006V90.0667V170.733L227.067 174.067C234.133 181.533 241.467 181.8 249.067 175.133L253.333 171.267V90.3334V9.40006L248.4 4.86672C244.667 1.53339 242.133 0.333389 238.667 0.333389C235.2 0.333389 232.667 1.53339 228.933 4.86672Z" fill="black"/>
<path d="M735.067 6.86663C727.867 10.2 722 19 722 26.2C722 30.3333 725.2 37.6666 728.533 41.1333C732 45 742.4 48.8666 746.4 47.8C748.133 47.4 751.733 45.5333 754.4 43.8L759.333 40.4666L764.133 43.6666C771.2 48.4666 776.533 49.1333 783.733 45.8C801.067 37.9333 801.2 14.8666 784 6.99997C780.8 5.5333 777.2 4.3333 776.133 4.3333C773.6 4.3333 764.667 8.3333 761.733 10.8666C759.6 12.4666 759.067 12.4666 756.933 10.6C754 7.79997 745.467 4.3333 742.4 4.46663C741.067 4.46663 737.733 5.5333 735.067 6.86663Z" fill="black"/>
<path d="M566.8 64.3334C519.867 87.8 480.933 107.533 480.267 108.2C478.267 110.2 480.4 116.333 483.2 116.333C484.533 116.333 514.4 101.933 549.467 84.4667C584.533 66.8667 622.667 47.9334 634 42.4667C656.4 31.4 660.267 28.4667 657.6 24.2C656.8 22.8667 655.067 21.6667 654 21.6667C652.933 21.6667 613.6 40.8667 566.8 64.3334Z" fill="black"/>
<path d="M1284 32.0668C1271.07 33.8002 1263.87 51.8002 1272.13 62.6002C1275.87 67.5335 1284.27 72.3335 1288.93 72.3335C1290.67 72.3335 1294.67 70.7335 1297.87 68.8668L1303.87 65.5335L1310.4 69.1335C1318.13 73.2668 1323.87 72.8668 1330.8 67.6668C1335.33 64.2002 1340.67 55.5335 1340.67 51.6668C1340.67 47.4002 1335.47 38.2002 1331.33 35.2668C1326.13 31.4002 1314.53 30.8668 1309.47 34.2002C1305.33 36.8668 1302.8 36.8668 1298.93 34.4668C1295.47 32.3335 1289.47 31.2668 1284 32.0668Z" fill="black"/>
<path d="M1059.07 33.9334C1052.53 39.2667 1052.67 38.2001 1052.67 102.333C1052.67 159.933 1052.8 162.467 1055.33 166.733C1060 174.333 1070.93 175.667 1077.47 169.533L1080.67 166.6V103V39.4001L1077.6 35.9334C1075.07 32.8667 1073.47 32.3334 1067.87 32.3334C1064.13 32.3334 1060.27 33.1334 1059.07 33.9334Z" fill="black"/>
<path d="M122.667 55.6667C100 60.3334 82.1333 77.4001 75.7333 100.333C74.8 103.8 74.1333 114.467 74 125.267C74 135.667 73.6 145 73.2 146.2C72.5333 147.933 70.2666 148.333 62.8 148.333C46.4 148.333 31.6 154.6 19.2 166.867C10.1333 176.067 7.59996 180.067 3.19996 192.333C0.933293 198.6 0.666626 203.267 0.666626 229.4C0.666626 256.867 0.933293 259.667 3.33329 263.667C8.79996 272.467 22.4 272.333 28.2666 263.533C30.4 260.333 30.8 255.933 31.3333 230.333C32 201.667 32.1333 200.867 35.4666 195.267C37.3333 192.2 41.6 187.667 44.8 185.267L50.5333 181L123.333 180.333L196 179.667L196.4 143.133C196.8 103.667 196.4 100.733 188.533 85.2667C181.333 71.4001 164.4 59.2667 146.667 55.5334C137.067 53.4001 133.2 53.4001 122.667 55.6667ZM145.6 86.7334C152.533 89.5334 156.8 93.2667 161.6 100.467C165.2 106.067 165.333 106.333 165.333 126.867V147.667H135.333H105.333L104.933 128.067C104.667 110.067 104.8 107.8 107.467 102.733C114.933 87.9334 131.467 81.0001 145.6 86.7334Z" fill="black"/>
<path d="M326.667 55.6668C313.867 58.3335 304 63.5335 295.467 72.3335C287.467 80.6001 282.267 90.0668 279.2 102.733C277.067 111.267 276.667 118.2 276.667 143.667C276.667 165.933 277.067 174.867 278.267 176.067C279.467 177.267 291.333 177.667 323.467 177.667C354.133 177.667 367.467 178.067 368.133 179.133C368.533 179.933 368.933 189.933 368.8 201.4C368.533 223.933 367.6 227.133 359.467 234.867C352.4 241.533 348.8 242.2 316.133 243L285.733 243.667L282 248.067C277.2 253.933 276.533 257.8 279.333 263.933C283.333 272.867 283.467 273 313.6 273.4C328.533 273.667 344.533 273.267 349.2 272.6C368.4 269.533 386.267 256.2 394.133 239C399.2 227.933 399.733 224.333 400.533 201.667L401.333 178.333L607.867 177.933C766.4 177.8 814.8 177.267 816.4 176.067C818 174.733 818.133 168.6 817.733 137.667C817.2 98.7335 817.6 101.8 810.133 85.8001C808.933 83.2668 804.4 77.4001 799.867 73.0001C780.267 53.1335 749.867 48.4668 727.333 61.8001C726.267 62.4668 724.133 63.5335 722.533 64.2001C717.6 66.3335 704.8 81.9335 700.4 90.8668C696.4 99.4001 696.267 100.333 695.467 123L694.667 146.333L548.933 147C468.933 147.4 402.667 147.4 402 147.267C401.2 147 400.667 139.267 400.667 127.933C400.667 107 398.667 97.1335 392 85.0001C384 70.3335 366.4 58.2001 348.533 55.1335C338.267 53.4001 337.333 53.4001 326.667 55.6668ZM348.933 86.4668C355.867 89.1335 362.667 95.2668 366 101.8C368.4 106.2 369.333 120.867 368.8 144.067L368.667 147L339.067 146.733L309.333 146.333L308.933 127.533C308.667 111 308.933 108.067 311.333 102.6C315.467 93.1335 328.133 84.6001 338.267 84.4668C341.067 84.3335 345.867 85.2668 348.933 86.4668ZM767.067 86.7335C774 89.6668 780.8 95.9335 784.133 102.6C786.267 106.867 786.667 110.733 786.667 127V146.333H756.667H726.667L726.267 129C725.867 107.8 727.333 101.933 734.8 94.4668C744.133 85.1335 756 82.3335 767.067 86.7335Z" fill="black"/>
<path d="M931.2 68.6C922.133 75.6667 920.4 83.6667 925.6 94.6C929.733 103.4 943.867 107.4 952.4 102.2C959.2 98.2 961.333 93.8 961.333 84.2C961.333 74.4667 960.267 72.4667 952.4 67.5334C945.067 62.8667 938.267 63.2667 931.2 68.6Z" fill="black"/>
<path d="M1205.33 67.5333C1192.13 70.8667 1179.2 80.8667 1172 93.5333C1165.87 104.2 1164.67 112.6 1164.67 144.467C1164.67 166.067 1165.07 174.867 1166.27 176.067C1167.47 177.267 1177.73 177.667 1204.27 177.667C1246 177.667 1243.33 176.733 1243.33 191C1243.33 206.6 1239.2 216.467 1230.27 221.667C1226.27 224.067 1223.33 224.333 1202.27 224.333C1175.33 224.333 1171.47 225.4 1166.93 234.2C1164 239.8 1165.07 244.467 1170.93 249.933C1174 252.867 1175.33 253 1195.07 253.4C1227.33 254.067 1237.6 251.933 1250.93 241.4C1264.93 230.467 1271.2 215.667 1271.33 193C1271.33 186.333 1271.87 180.2 1272.4 179.4C1273.2 178.067 1312.67 177.667 1450.67 177.4C1622.13 177 1628.13 176.867 1634 174.467C1644.67 169.933 1657.07 159 1661.47 150.333C1666.4 140.733 1668.67 130.333 1668.67 117.133C1668.67 106.067 1668.27 103.267 1665.87 99.5333C1664.4 97 1662 94.3333 1660.67 93.6667C1656 91.2667 1649.07 92.2 1644.8 95.8C1640.67 99.1333 1640.67 99.4 1640.67 111.8C1640.67 130.067 1636.8 139.933 1626.93 146.2C1622.67 149 1621.47 149 1484.27 149.4C1328.27 149.8 1342.53 150.867 1346.53 138.733C1348 134.2 1348.67 127.267 1348.67 116.867C1348.67 101.933 1348.67 101.667 1344.53 97C1340.93 93 1339.6 92.3333 1334.4 92.3333C1329.47 92.3333 1327.73 93 1324.53 96.4667C1320.8 100.467 1320.67 101 1320.53 114.867C1320.53 131.8 1317.87 138.6 1309.33 144.733C1304.4 148.067 1302.4 148.6 1289.6 149.267C1279.07 149.8 1274.93 149.667 1273.33 148.333C1271.73 147 1271.33 143.4 1271.33 130.467C1271.2 106.467 1267.47 94.2 1256.67 82.4667C1247.73 72.7333 1230.13 65.4 1216.93 65.8C1214.27 65.9333 1208.93 66.7333 1205.33 67.5333ZM1225.87 95.8C1228.13 96.3333 1232.27 99 1235.07 101.8C1241.47 108.067 1243.33 115.533 1243.33 133.667C1243.33 145.667 1243.07 147 1240.53 148.333C1237.6 149.933 1196.27 149.667 1194.67 148.067C1192.93 146.333 1194 113.933 1196 109.4C1200.67 98.3333 1212.13 93.1333 1225.87 95.8Z" fill="black"/>
<path d="M1401.2 82.3334C1399.6 86.4667 1402.13 87 1426.8 87C1440.93 87 1452.53 87.5334 1454 88.3334C1455.47 89.1334 1456.93 91.8 1457.33 94.7334C1458.67 103.267 1461.47 107.8 1466.8 110.333C1471.33 112.467 1472 112.467 1476.27 110.467C1478.67 109.267 1481.6 108.333 1482.67 108.333C1483.73 108.333 1486.67 109.267 1489.07 110.467C1493.33 112.467 1494 112.467 1498.53 110.333C1505.47 107 1507.47 102.333 1507.07 90.6C1506.67 82.0667 1506.4 81 1504 81C1501.6 81 1501.2 82.0667 1500.67 91.4C1500 102.2 1498.8 104.333 1493.2 104.333C1488.13 104.333 1486 100.2 1486 90.4667C1486 83.5334 1485.47 81.4 1483.87 80.7334C1480.67 79.5334 1479.33 82.7334 1479.33 91.8C1479.33 97.9334 1478.8 100.467 1476.93 102.067C1471.33 107.267 1464.67 103.4 1464.67 95C1464.67 91 1463.73 88.8667 1460.13 85.1334L1455.73 80.3334H1428.8C1406.53 80.3334 1401.73 80.6 1401.2 82.3334Z" fill="black"/>
<path d="M851.733 95.2667C846.133 101.533 846 102.333 846 154.867C846 208.467 846.4 213.533 852.533 225.4C858.267 236.6 868.533 245.533 881.467 250.467C887.467 252.733 892.133 253 938.667 253H989.333L998 248.6C1006.67 244.2 1018.53 233.933 1020.8 229C1021.47 227.533 1022.53 225.4 1023.2 224.333C1028.53 215.133 1028.67 214.2 1028.67 156.467V100.6L1024.8 96.4667C1021.6 93 1019.87 92.3333 1014.93 92.3333C1009.73 92.3333 1008.4 93 1004.8 97L1000.67 101.8V153.8C1000.67 203.4 1000.53 206.067 998 211.133C996.533 213.933 992.8 218.2 989.733 220.333L984.267 224.333H937.867C894 224.333 891.2 224.2 887.067 221.667C882.133 218.867 877.733 213.533 876 208.333C875.333 206.467 874.533 181.133 874.133 151.933L873.333 99L869.467 95.6667C864.267 91.1333 855.6 91 851.733 95.2667Z" fill="black"/>
<path d="M1116.53 96.2L1112.67 100.067V151.933C1112.67 200.067 1112.4 204.067 1110 209C1103.47 222.867 1099.87 224.333 1072.13 224.333C1049.47 224.333 1044.8 225.133 1039.73 229.933C1035.33 234.067 1035.47 243.8 1040 249.133L1043.33 253L1064.27 253.4C1095.6 254.067 1106.13 252.067 1119.07 242.6C1128.67 235.533 1133.2 228.867 1138.13 215C1140.53 208.333 1140.67 203.667 1140.67 155V102.333L1136.53 97.2667C1132.93 92.8667 1131.73 92.3334 1126.53 92.3334C1121.6 92.3334 1119.73 93.1334 1116.53 96.2Z" fill="black"/>
<path d="M1696.8 97L1692.67 101.8V153.8C1692.67 203.4 1692.53 206.067 1690 211.133C1688.53 213.933 1684.8 218.2 1681.73 220.333L1676.27 224.333H1653.2C1640.53 224.333 1628.67 224.867 1626.93 225.533C1616.67 229.533 1613.6 240.867 1620.53 248.6L1624.4 253H1652.93L1681.33 252.867L1690 248.6C1698.67 244.2 1710.53 234.067 1712.8 229C1713.47 227.533 1714.53 225.4 1715.2 224.333C1720.53 215.133 1720.67 214.2 1720.67 156.467V100.6L1716.8 96.4667C1713.6 93 1711.87 92.3333 1706.93 92.3333C1701.73 92.3333 1700.4 93 1696.8 97Z" fill="black"/>
</svg>
