<svg width="628" height="378" viewBox="0 0 628 378" fill="none" xmlns="http://www.w3.org/2000/svg">
<path d="M308.487 2.00554C304.887 3.0722 300.353 4.40554 298.487 4.80554C295.287 5.73887 295.153 6.2722 294.753 18.4055C294.62 25.3389 293.82 31.6055 293.02 32.5389C292.22 33.4722 289.153 34.5389 286.087 35.0722C279.953 36.0055 267.553 38.4055 251.42 41.8722C245.287 43.2055 240.487 43.6055 239.82 42.9389C239.153 42.2722 238.487 36.9389 238.22 31.0722C237.82 20.6722 237.82 20.4055 234.487 20.6722C232.62 20.8055 228.22 21.7389 224.487 22.8055L217.82 24.6722L217.153 35.8722L216.487 47.0722L210.487 49.3389C207.153 50.5389 202.753 51.6055 200.487 51.6055C198.353 51.7389 192.353 52.6722 187.153 53.8722C166.62 58.5389 160.22 59.7389 153.82 60.0055L147.153 60.4055L146.753 53.0722C146.22 43.2055 145.287 42.5389 136.753 44.0055C125.553 46.0055 123.82 47.7389 123.82 56.9389C123.82 65.8722 122.753 67.0722 115.153 68.1389C112.22 68.5389 106.487 69.4722 102.487 70.4055C98.4866 71.2055 90.62 72.8055 85.1533 73.8722C79.6867 74.9389 71.02 76.6722 65.9533 77.7389C60.8867 78.9389 56.22 79.3389 55.6867 78.8055C55.1533 78.2722 54.4867 75.3389 54.22 72.4055L53.82 67.0722L44.62 67.4722C35.42 67.8722 27.82 70.5389 27.82 73.4722C27.2866 88.4055 27.82 126.806 28.4866 127.872C29.42 129.339 32.3533 129.072 51.1533 125.606C71.2867 122.006 101.687 116.539 118.487 113.739C132.087 111.339 145.02 108.939 157.82 106.406C162.22 105.472 169.687 104.272 174.487 103.739C179.287 103.072 184.887 102.006 186.887 101.206C189.02 100.406 193.02 99.7389 195.82 99.7389C198.62 99.7389 202.62 99.0722 204.62 98.2722C206.753 97.6055 212.353 96.4055 217.153 95.7389C221.953 95.0722 229.42 93.8722 233.82 93.0722C250.353 89.8722 262.22 87.7389 274.487 85.7389C281.42 84.5389 291.153 82.6722 296.087 81.6055C307.42 79.2055 317.687 79.2055 328.22 81.6055C332.753 82.6722 341.553 84.5389 347.82 85.7389C354.087 86.9389 363.02 88.8055 367.82 89.7389C372.62 90.8055 381.153 92.5389 386.887 93.6055C412.62 98.8055 418.22 100.006 423.82 101.339C427.153 102.139 432.887 103.206 436.487 103.739C440.22 104.272 445.82 105.339 449.153 106.139C452.487 106.939 459.953 108.539 465.82 109.739C471.687 110.939 480.353 112.672 485.153 113.739C489.953 114.672 498.887 116.539 505.153 117.739C511.42 118.939 520.353 120.806 525.153 121.739C529.953 122.672 538.887 124.539 545.153 125.739C551.42 126.939 560.087 128.806 564.487 129.739C575.953 132.406 591.687 134.939 592.487 134.272C592.753 133.872 593.153 122.672 593.287 109.206C593.42 90.1389 593.02 84.4055 591.687 83.0722C589.42 80.8055 573.153 75.6055 571.553 76.5389C571.02 76.9389 570.487 79.3389 570.487 81.8722C570.487 87.8722 568.22 88.6722 558.753 86.0055C543.42 81.8722 539.02 80.6722 530.62 78.9389C518.62 76.4055 515.553 74.1389 515.82 68.0055C515.953 65.3389 516.087 62.4055 515.953 61.4722C515.687 57.8722 501.953 53.4722 498.887 56.0055C497.953 56.8055 497.153 60.0055 497.153 63.2055C497.153 70.0055 495.953 71.0722 490.087 69.2055C481.153 66.4055 464.62 62.4055 451.82 59.7389C448.487 59.0722 443.42 57.6055 440.487 56.5389L435.153 54.6722L434.753 45.2055C434.353 36.2722 434.087 35.6055 430.62 33.7389C428.487 32.6722 424.22 31.6055 421.02 31.4722L415.153 31.0722L414.487 39.7389L413.82 48.4055L408.487 48.1389C405.553 48.0055 399.687 46.9389 395.553 45.7389C384.753 42.9389 374.087 40.2722 362.487 37.6055C357.02 36.2722 351.687 34.6722 350.887 34.0055C349.687 33.2055 349.153 28.9389 349.153 21.7389C349.153 14.5389 348.62 10.2722 347.553 9.4722C346.62 8.80554 342.22 7.0722 337.82 5.73887C333.42 4.40554 327.553 2.53887 324.753 1.60554C318.753 -0.661132 317.153 -0.527798 308.487 2.00554ZM294.087 41.8722C295.153 44.6722 291.153 47.7389 286.753 47.7389C283.687 47.7389 275.153 49.4722 255.82 53.7389C241.287 57.0722 236.087 56.1389 239.553 50.9389C240.087 50.0055 244.353 48.6722 249.153 47.8722C265.287 45.2055 279.953 42.4055 284.22 41.2055C290.753 39.3389 293.153 39.4722 294.087 41.8722ZM362.487 43.7389C369.42 45.2055 379.687 47.8722 386.753 49.8722C390.22 50.9389 394.087 51.7389 395.42 51.7389C396.753 51.7389 401.42 52.9389 405.82 54.2722C411.953 56.1389 413.953 57.4722 414.22 59.6055C414.753 62.8055 412.887 63.0722 404.62 60.9389C401.687 60.1389 395.82 58.6722 391.82 57.7389C387.82 56.8055 380.887 55.0722 376.487 53.8722C372.087 52.8055 364.353 50.8055 359.42 49.6055C349.82 47.2055 348.487 46.1389 349.687 42.8055C350.353 41.3389 351.42 41.0722 354.22 41.7389C356.22 42.2722 359.953 43.2055 362.487 43.7389ZM294.487 58.5389C294.487 64.4055 292.62 65.8722 283.687 67.0722C277.82 67.8722 266.887 70.0055 249.953 73.6055C244.887 74.6722 240.22 75.3389 239.553 74.9389C239.02 74.5389 238.487 72.0055 238.487 69.2055C238.487 64.8055 239.02 63.8722 242.487 62.4055C244.62 61.4722 249.82 60.2722 254.087 59.7389C262.887 58.5389 274.753 56.2722 284.487 53.7389C293.153 51.6055 294.487 52.2722 294.487 58.5389ZM367.153 57.7389C383.153 61.8722 386.087 62.6722 391.153 63.6055C399.553 65.3389 409.687 68.0055 411.82 69.0722C413.953 70.1389 415.287 78.1389 413.553 79.8722C413.02 80.4055 410.087 80.4055 407.153 79.7389C400.22 78.4055 378.753 73.4722 368.487 70.9389C364.087 69.8722 358.753 68.5389 356.487 68.1389C354.353 67.7389 351.687 66.8055 350.887 66.1389C349.02 64.6722 348.487 56.8055 350.087 55.3389C351.153 54.2722 357.42 55.2055 367.153 57.7389ZM216.353 56.9389C217.687 58.9389 212.353 62.5389 207.02 63.2055C204.087 63.4722 197.687 64.6722 192.487 65.7389C187.42 66.8055 178.62 68.5389 173.153 69.6055C167.687 70.6722 159.953 72.1389 156.087 72.9389C148.22 74.5389 146.487 74.1389 146.487 70.6722C146.487 68.9389 148.887 67.8722 156.22 66.0055C161.553 64.8055 167.153 63.7389 168.62 63.7389C169.953 63.7389 175.02 62.9389 179.82 61.7389C201.82 56.8055 206.087 56.0055 210.753 55.8722C213.42 55.7389 215.953 56.2722 216.353 56.9389ZM452.353 66.0055C455.153 66.9389 458.887 67.7389 460.753 67.7389C462.487 67.7389 465.153 68.4055 466.487 69.0722C467.953 69.8722 472.087 71.0722 475.82 71.7389C490.087 74.4055 497.153 77.0722 497.153 79.8722C497.153 81.4722 496.22 82.4055 494.487 82.4055C492.087 82.4055 471.687 77.6055 457.82 73.8722C454.22 72.8055 448.887 71.6055 446.087 71.0722C436.753 69.4722 432.353 66.2722 435.42 63.3389C436.487 62.1389 445.687 63.6055 452.353 66.0055ZM216.487 73.7389V79.0722L207.153 81.2055C202.087 82.4055 192.087 84.4055 185.153 85.6055C178.22 86.9389 168.753 88.8055 164.22 89.8722C159.687 90.9389 153.82 91.7389 151.153 91.7389H146.353L146.753 86.0055C147.153 80.5389 147.287 80.4055 152.487 79.4722C155.42 79.0722 162.353 77.7389 167.82 76.6722C173.287 75.6055 181.687 74.0055 186.487 73.0722C191.287 72.2722 198.22 70.6722 201.82 69.7389C205.553 68.8055 210.353 68.1389 212.487 68.1389C216.22 68.4055 216.487 68.8055 216.487 73.7389ZM123.553 76.0055C123.153 78.8055 121.553 79.3389 105.153 82.6722C77.42 88.2722 65.02 90.6722 59.42 91.3389C54.62 92.0055 54.3533 91.8722 54.7533 88.9389C55.1533 86.0055 56.4867 85.4722 69.1533 82.9389C76.8867 81.4722 87.02 79.4722 91.82 78.4055C122.887 72.1389 124.087 72.1389 123.553 76.0055ZM465.82 81.8722C498.353 89.7389 497.153 89.2055 497.153 95.0722C497.153 99.2055 496.753 99.7389 493.553 99.7389C491.687 99.7389 487.02 98.9389 483.287 97.8722C475.02 95.6055 465.02 93.0722 457.82 91.6055C445.82 89.0722 437.687 86.9389 436.22 86.0055C435.287 85.3389 434.487 82.8055 434.487 80.2722C434.487 74.2722 434.753 74.2722 465.82 81.8722ZM540.487 87.2055C565.687 93.2055 569.687 94.6722 570.22 97.4722C570.887 100.406 563.553 100.539 553.287 97.6055C534.753 92.4055 532.087 91.7389 529.687 91.7389C528.353 91.7389 524.487 90.5389 521.287 89.0722C516.353 86.8055 515.82 86.1389 517.153 84.4055C518.087 83.3389 519.153 82.4055 519.687 82.4055C520.087 82.4055 529.553 84.5389 540.487 87.2055ZM121.953 86.1389C124.887 88.0055 125.287 92.6722 122.887 95.6055C121.153 97.7389 118.087 98.8055 111.687 99.7389C106.753 100.406 101.153 101.606 99.2866 102.406C97.2866 103.072 93.6867 103.739 91.1533 103.739C88.62 103.739 85.02 104.406 83.02 105.206C80.8867 105.872 75.2867 107.072 70.4867 107.739C65.6867 108.406 60.22 109.339 58.3533 109.872C55.42 110.539 54.7533 110.139 54.22 107.206C53.02 101.206 55.82 97.8722 63.1533 96.6722C66.8867 96.1389 74.22 94.8055 79.5533 93.7389C84.7533 92.6722 93.82 90.8055 99.5533 89.7389C105.153 88.5389 111.953 87.2055 114.487 86.5389C117.02 85.8722 119.42 85.3389 119.82 85.2055C120.22 85.2055 121.153 85.6055 121.953 86.1389ZM529.953 97.6055C540.487 100.539 548.087 102.539 554.62 103.739C565.287 105.739 570.487 108.539 570.487 112.272C570.487 114.139 569.953 115.872 569.287 116.406C568.087 117.072 557.687 115.206 540.487 110.939C536.087 109.872 529.553 108.406 525.953 107.872C519.42 106.806 515.82 104.006 515.82 99.7389C515.82 95.2055 519.553 94.6722 529.953 97.6055Z" fill="#122268"/>
<path d="M294.487 97.7391C291.153 98.8057 286.22 99.7391 283.553 99.7391C280.887 99.7391 277.02 100.406 275.02 101.206C272.887 101.872 267.287 103.072 262.487 103.739C257.687 104.406 250.22 105.606 245.82 106.406C227.153 110.006 218.487 111.606 206.487 113.739C189.02 116.672 173.02 119.606 161.153 121.739C155.687 122.672 145.42 124.539 138.487 125.739C131.553 126.806 121.287 128.672 115.82 129.739C110.353 130.806 100.087 132.539 93.1534 133.739C86.2201 134.939 76.6201 136.672 71.8201 137.872C67.0201 138.939 61.2867 139.739 59.0201 139.739C56.7534 139.739 51.9534 140.672 48.3534 141.739C44.7534 142.806 39.6867 143.739 37.0201 143.739C34.4867 143.739 31.1534 144.539 29.8201 145.606C27.2867 147.339 27.2867 150.139 27.5534 230.139C27.6867 279.206 27.2867 314.139 26.6201 316.139C25.8201 318.139 23.9534 319.739 21.5534 320.139C15.9534 321.206 6.22007 323.872 2.48673 325.339C-0.579933 326.539 -0.713266 326.806 1.5534 328.406C2.88673 329.339 7.1534 330.539 10.8867 331.072C14.7534 331.472 23.2867 332.672 29.8201 333.739C36.4867 334.806 47.8201 336.672 55.1534 337.739C83.9534 342.272 94.2201 343.872 104.62 345.739C110.62 346.806 117.553 347.739 119.953 347.739C122.487 347.739 127.82 348.672 131.82 349.739C135.82 350.806 141.553 351.739 144.487 351.739C147.42 351.739 153.153 352.672 157.153 353.739C161.153 354.806 166.487 355.739 169.02 355.739C171.42 355.739 178.353 356.672 184.353 357.739C194.753 359.606 206.753 361.606 233.153 365.606C258.22 369.472 273.953 372.006 285.153 373.739C318.62 379.206 320.353 379.206 345.82 374.272C349.553 373.472 358.22 372.006 365.153 370.806C372.087 369.739 382.62 368.006 388.487 366.939C394.353 366.006 403.553 364.539 409.02 363.739C414.487 362.939 419.553 361.872 420.22 361.472C420.887 361.072 425.42 360.272 430.353 359.606C438.62 358.672 441.953 358.139 461.82 354.406C466.22 353.606 473.82 352.406 478.62 351.872C483.553 351.206 488.22 350.272 489.02 349.872C489.82 349.339 494.487 348.406 499.553 347.872C504.487 347.206 512.087 346.006 516.487 345.206C524.087 343.739 530.62 342.672 560.487 337.739C567.82 336.539 578.353 334.672 583.82 333.739C589.287 332.806 600.087 330.939 607.82 329.739C627.42 326.672 628.353 326.406 627.02 325.206C626.353 324.539 621.287 323.072 615.82 321.872C599.02 318.006 595.287 316.806 593.553 315.472C592.22 314.406 592.087 296.272 592.753 233.739C593.687 142.272 595.02 152.139 581.153 149.206C577.153 148.272 571.153 146.939 567.82 146.139C564.487 145.339 558.887 144.272 555.153 143.739C551.553 143.206 545.82 142.139 542.487 141.339C539.153 140.539 531.687 138.939 525.82 137.739C519.953 136.539 511.287 134.806 506.487 133.739C501.687 132.806 492.753 130.939 486.487 129.739C480.22 128.539 471.287 126.672 466.487 125.739C461.687 124.672 452.753 122.939 446.487 121.739C440.22 120.539 431.553 118.806 427.153 117.739C422.753 116.806 414.087 114.939 407.82 113.739C401.553 112.539 392.62 110.672 387.82 109.739C379.42 108.006 369.687 106.006 348.22 101.606C342.487 100.539 335.42 98.9391 332.487 98.1391C323.553 95.7391 301.287 95.6057 294.487 97.7391ZM312.487 233.739V351.072L305.42 351.472C301.553 351.739 293.42 350.939 287.287 349.872C281.287 348.672 273.02 347.739 269.02 347.739C265.02 347.739 261.02 347.072 260.087 346.139C258.887 344.939 258.487 329.206 258.487 283.872C258.487 229.339 258.22 222.272 256.087 215.739C252.62 204.939 249.953 200.672 243.02 194.539C234.62 187.206 227.553 185.339 215.287 187.339C208.753 188.406 197.553 199.072 193.02 208.406C189.953 215.072 189.953 215.206 189.42 274.406C189.153 315.872 188.487 334.272 187.42 335.472C186.353 336.939 183.287 337.072 173.953 336.406C159.687 335.339 137.82 332.272 135.82 331.072C135.02 330.539 134.487 312.672 134.487 278.539C134.487 223.339 134.087 219.739 127.42 209.739C122.62 202.539 112.22 195.739 106.22 195.739C97.5534 195.872 87.0201 203.872 80.8867 214.939C77.8201 220.272 77.8201 221.206 77.4201 272.006C77.0201 314.272 76.6201 323.872 75.1534 325.072C73.6867 326.272 71.5534 326.272 66.4867 325.206C62.7534 324.406 56.6201 323.739 52.7534 323.739C48.8867 323.739 45.0201 323.206 44.0867 322.672C42.7534 321.739 42.4867 304.139 42.7534 239.072L43.1534 156.539L57.8201 154.139C65.9534 152.806 77.4201 150.806 83.2867 149.739C89.2867 148.672 96.2201 147.739 98.6201 147.739C101.153 147.739 105.287 147.072 107.82 146.272C110.353 145.606 117.02 144.406 122.487 143.739C127.953 143.206 136.753 142.006 141.82 141.072C151.553 139.472 166.487 137.206 187.82 133.872C194.753 132.806 206.487 130.939 213.82 129.872C238.753 126.006 252.487 123.872 267.82 121.739C276.22 120.406 287.02 118.672 291.82 117.739C296.62 116.806 303.153 116.006 306.487 116.139L312.487 116.406V233.739ZM419.82 191.072C427.82 195.072 432.487 201.872 435.953 214.406C438.353 222.539 438.487 227.872 438.22 277.206L437.82 331.072L428.887 331.472C422.087 331.739 419.82 331.472 419.82 330.139C419.82 329.206 419.687 302.539 419.553 271.072C419.153 214.939 419.153 213.606 416.22 208.272C414.62 205.339 411.287 201.072 408.753 198.806C402.62 193.472 402.087 192.272 404.62 189.872C407.553 186.806 412.22 187.206 419.82 191.072ZM526.887 206.139C530.087 209.072 533.42 215.739 536.22 225.072C538.22 231.472 538.487 238.272 538.22 275.739L537.82 319.072L531.82 320.539C527.82 321.606 525.287 321.606 524.22 320.672C522.887 319.739 522.487 308.406 522.487 272.406C522.487 228.939 522.353 224.939 519.82 217.739C518.353 213.472 516.487 209.206 515.687 208.272C514.887 207.206 514.62 205.472 515.02 204.272C516.087 201.606 523.02 202.672 526.887 206.139Z" fill="#122268"/>
</svg>
