<svg xmlns="http://www.w3.org/2000/svg" viewBox="0 0 64 64" id="cola">
  <g>
    <path fill="#1d1d1b" d="M37.05,34a2,2,0,1,0-2-2A2,2,0,0,0,37.05,34Z"></path>
    <circle cx="33.92" cy="36.18" r="1.36" fill="#1d1d1b"></circle>
    <path fill="#1d1d1b" d="M37,38.87a1,1,0,1,0,1,1A1,1,0,0,0,37,38.87Z"></path>
    <path fill="#1d1d1b" d="M47.17,16.92l-.72-1.45a3,3,0,0,0-2.69-1.66H41a3,3,0,0,0-3-3H33.44l2.25-6h2.1l6.82,2.92a1,1,0,1,0,.78-1.84l-7-3A1,1,0,0,0,38,2.81H35a1,1,0,0,0-.94.65l-2.75,7.35H26a3,3,0,0,0-3,3H20.24a3,3,0,0,0-2.69,1.66l-.72,1.45a2,2,0,0,0,1.79,2.89h.43l1.73,35.91s0,.06,0,.09a.8.8,0,0,0,0,.15L21,59.3a2,2,0,0,0,2,1.89h18.1a2,2,0,0,0,2-1.9L43.21,56a.8.8,0,0,0,0-.15s0-.06,0-.09L45,19.81h.43a2,2,0,0,0,1.79-2.89ZM26,12.81H38a1,1,0,0,1,1,1H25A1,1,0,0,1,26,12.81ZM23,59.2l-.12-2.39H25a1,1,0,0,0,0-2H22.74L21.33,25.63l.33.23a4.06,4.06,0,0,0,5.07,0,2.07,2.07,0,0,1,2.72,0,4.06,4.06,0,0,0,5.07,0,2,2,0,0,1,1.36-.51,2,2,0,0,1,1.37.51,4,4,0,0,0,5.06,0l.36-.24L41.26,54.81H29.32a1,1,0,1,0,0,2H41.17l-.12,2.38ZM39.52,17.81a1,1,0,0,0,0,2H43l-.17,3.63a4.19,4.19,0,0,0-1.63.8,2.1,2.1,0,0,1-2.74,0,4,4,0,0,0-5.06,0,2,2,0,0,1-1.37.51,2,2,0,0,1-1.36-.51,4,4,0,0,0-5.06,0,2.08,2.08,0,0,1-2.73,0,4.18,4.18,0,0,0-1.6-.79l-.18-3.64H34.86a1,1,0,0,0,0-2H18.62l.72-1.45a1,1,0,0,1,.9-.55H43.76a1,1,0,0,1,.9.55l.72,1.45Z"></path>
  </g>
</svg>
