<svg width="64" height="64" viewBox="0 0 64 64" fill="none" xmlns="http://www.w3.org/2000/svg">
<path d="M46.1579 31.7437H17.3174L18.3082 28.7075H45.1675L46.1579 31.7437Z" fill="#122268"/>
<path d="M40.3809 46.3335H23.2916C22.8194 46.3335 22.3988 46.036 22.2414 45.5917L18.0703 33.7734C17.8146 33.0486 18.3519 32.2898 19.1203 32.2898H44.5524C45.3205 32.2898 45.8581 33.0486 45.6024 33.7734L41.4311 45.5917C41.2737 46.036 40.8531 46.3335 40.3809 46.3335Z" fill="#FCBE55"/>
<path d="M21.8201 44.0273L17.29 31.8731H20.6083L20.5373 32.0578H19.1702C18.4013 32.0578 17.8636 32.8178 18.1194 33.5436L21.8201 44.0273ZM21.7714 28.8388H18.6624L21.8215 28.7074L21.7714 28.8388Z" fill="#E9E8E8"/>
<path d="M20.637 31.7437H17.3174L18.6903 28.7075H21.8006L20.637 31.7437Z" fill="#122268"/>
<path d="M25.3864 45.9119H23.3974L21.7696 44.2531L21.7682 44.2512L18.0703 33.7736C17.8146 33.0487 18.3519 32.2899 19.1203 32.2899H20.4863L20.465 32.3464L25.6914 32.3859L26.1892 34.4608H20.995L25.3864 45.9119ZM43.7782 34.4608H38.8023L39.2753 32.4895L44.4669 32.529L43.7782 34.4608ZM37.9624 34.4608H27.0291L26.533 32.3916L38.4369 32.4839L37.9624 34.4608Z" fill="#E1B961"/>
<path d="M41.7227 44.7341L45.4299 34.2313H45.7371L46.4526 32.3132L45.3208 32.3037C45.1324 32.1513 44.8912 32.0579 44.6219 32.0579L44.5467 31.8732H46.1188L45.5232 30.0465L47.0358 31.5379L42.1918 44.5036L41.7227 44.7341ZM44.2975 28.8389H43.9524L44.1651 28.7075L44.2975 28.8389Z" fill="white"/>
<path d="M46.1578 31.7437H44.585L43.4795 29.0217L43.9903 28.7075H44.3357L45.5618 29.917L46.1578 31.7437Z" fill="#122268"/>
<path d="M39.6963 45.9119L43.7782 34.4608H45.3597L41.6553 44.9554L39.6963 45.9119ZM45.2507 32.5347L44.4669 32.529L44.5524 32.2899C44.8216 32.2899 45.0624 32.3822 45.2507 32.5347Z" fill="#FADC9D"/>
<path d="M45.7405 34.2178H45.4332L45.6761 33.5287C45.8424 33.058 45.6735 32.5722 45.3242 32.2898L46.456 32.2992L45.7405 34.2178Z" fill="#F1F0F0"/>
<path d="M45.4323 34.2234H43.8496L44.5389 32.2898L45.3233 32.2954C45.6727 32.5778 45.8414 33.0636 45.6752 33.5362L45.4323 34.2234Z" fill="#EBD198"/>
<path d="M36.0557 45.9119H35.2158L37.9621 34.4608H38.802L36.0557 45.9119ZM39.2749 32.4895L38.4365 32.4839L38.4828 32.2899H39.3227L39.2749 32.4895Z" fill="#FADC9D"/>
<path d="M38.8561 34.2686H38.0156L38.4905 32.2898L39.3294 32.2954L38.8561 34.2686Z" fill="#EBD198"/>
<path d="M29.7753 45.9119H28.9352L26.1887 34.4608H27.0287L29.7753 45.9119ZM26.5325 32.3916L25.6909 32.3859L25.668 32.2899H26.5081L26.5325 32.3916Z" fill="#FADC9D"/>
<path d="M27.052 34.3665H26.2119L25.7139 32.2897L26.5557 32.2954L27.052 34.3665Z" fill="#EBD198"/>
<path d="M20.274 29.9169C19.4839 29.9169 18.7697 30.2883 18.3148 30.934C17.8599 31.5797 17.7519 32.3778 18.0186 33.1226L22.0929 44.4883C22.4333 45.4368 23.3396 46.0749 24.3483 46.0749H39.1432C40.1519 46.0749 41.0582 45.4368 41.3986 44.4883L45.4729 33.1226C45.7395 32.3778 45.6317 31.5797 45.1767 30.934C44.722 30.2883 44.0077 29.9169 43.2174 29.9169H20.274ZM39.1432 47.2864H24.3483C23.6015 47.2864 22.8836 47.0578 22.2729 46.6292C21.662 46.1988 21.206 45.5988 20.9538 44.8959L16.8796 33.5302C16.6756 32.9607 16.6167 32.374 16.7045 31.7854C16.7868 31.233 17.0015 30.6978 17.3253 30.2388C17.6491 29.7778 18.0803 29.3949 18.5721 29.1321C19.0971 28.8502 19.6695 28.7073 20.274 28.7073H43.2174C43.822 28.7073 44.3946 28.8502 44.9195 29.1321C45.4112 29.3949 45.8422 29.7778 46.1662 30.2388C46.49 30.6978 46.7047 31.233 46.7872 31.7854C46.8748 32.374 46.8159 32.9607 46.6119 33.5302L42.5376 44.8959C42.2856 45.5988 41.8296 46.1988 41.2188 46.6292C40.6077 47.0578 39.8902 47.2864 39.1432 47.2864Z" fill="#1A3351"/>
<path d="M44.0514 39.4753H20.6496C20.3139 39.4753 20.042 39.204 20.042 38.868C20.042 38.532 20.3139 38.2606 20.6496 38.2606H44.0514C44.3867 38.2606 44.3198 38.532 44.3198 38.868C44.3198 39.204 44.3867 39.4753 44.0514 39.4753Z" fill="#1A3351"/>
<path d="M28.9189 46.1353C28.6454 46.1353 28.397 45.95 28.3294 45.6722L24.9657 31.9103C24.8862 31.5833 25.0857 31.2544 25.4116 31.175C25.7375 31.0957 26.0661 31.296 26.1457 31.6211L29.5092 45.3849C29.5889 45.71 29.3893 46.0389 29.0635 46.1182C29.0151 46.1296 28.9665 46.1353 28.9189 46.1353ZM34.8296 46.0105C34.782 46.0105 34.7332 46.0029 34.6849 45.9916C34.3588 45.9122 34.1592 45.5833 34.239 45.2582L37.5714 31.6211C37.651 31.296 37.9799 31.0957 38.3061 31.175C38.632 31.2544 38.8318 31.5833 38.7518 31.9103L35.4195 45.5455C35.3517 45.8234 35.1033 46.0105 34.8296 46.0105Z" fill="#1A3351"/>
<path d="M46.6042 32.311H18.0051C17.6696 32.311 17.3975 32.0389 17.3975 31.7024C17.3975 31.3679 17.6696 31.0957 18.0051 31.0957H46.6042C46.9397 31.0957 47.2115 31.3679 47.2115 31.7024C47.2115 32.0389 46.9397 32.311 46.6042 32.311Z" fill="#1A3351"/>
<path d="M17.6433 31.3064C17.5877 31.3064 17.5313 31.2985 17.4752 31.2827C17.1523 31.1897 16.9654 30.8515 17.0578 30.529L20.8548 17.2763C20.9474 16.9519 21.2844 16.766 21.6072 16.8589C21.9304 16.9519 22.1174 17.2882 22.0248 17.6106L18.2278 30.8633C18.1514 31.1323 17.9079 31.3064 17.6433 31.3064ZM46.7598 31.3064C46.4951 31.3064 46.2516 31.1323 46.1752 30.8633L42.3782 17.6106C42.2857 17.2882 42.4726 16.9519 42.7956 16.8589C43.1186 16.766 43.4555 16.9519 43.548 17.2763L47.345 30.529C47.4376 30.8515 47.2507 31.1897 46.9277 31.2827C46.8715 31.2985 46.8153 31.3064 46.7598 31.3064Z" fill="#1A3351"/>
</svg>
