<svg xmlns="http://www.w3.org/2000/svg" width="6" height="6" viewBox="0 0 6 6" id="fish">
  <g id="layer_1">
    <path d="M4.1284 2.8006C3.9688 2.5747 3.7604 2.3839 3.5192 2.2448L3.5195 2.2445C3.238 2.082 2.9117 1.9888 2.5642 1.9888 2.2164 1.9888 1.8899 2.082 1.6089 2.2445L1.6024 2.2487C1.3141 2.4165 1.0735 2.658 .9068 2.946 .8867 2.9806 .8881 3.022 .9068 3.0543 1.0752 3.3449 1.3184 3.5878 1.6089 3.7556L1.6169 3.7599C1.7657 3.8446 1.9264 3.9104 2.0965 3.9532L2.1044 3.9552C2.2518 3.9917 2.4058 4.011 2.5642 4.011 2.9117 4.011 3.2383 3.9178 3.5192 3.7556L3.526 3.7514C3.7644 3.6128 3.9699 3.4234 4.1284 3.1995 4.2157 3.3228 4.3174 3.4359 4.4311 3.5357 4.5865 3.672 4.7648 3.7843 4.9584 3.8645 5.0131 3.8871 5.0766 3.8611 5.0992 3.8064 5.1219 3.7517 5.0958 3.6882 5.0411 3.6655 4.8691 3.594 4.7106 3.4946 4.5729 3.3735 4.4498 3.2655 4.3421 3.1394 4.2542 2.9999 4.3421 2.8604 4.4498 2.7343 4.5729 2.6263 4.7106 2.5053 4.8691 2.4058 5.0411 2.3343 5.0958 2.3117 5.1219 2.2482 5.0992 2.1934 5.0766 2.1387 5.0131 2.1127 4.9584 2.1353 4.7648 2.2156 4.5865 2.3278 4.4311 2.4642 4.3174 2.5639 4.2157 2.677 4.1284 2.8006ZM3.4118 2.431C3.6516 2.5693 3.8546 2.7655 4.0022 3.0002 3.856 3.2323 3.6553 3.4271 3.4183 3.5651L3.4109 3.5691C3.1623 3.7125 2.8732 3.795 2.5642 3.795 2.4701 3.795 2.3777 3.7874 2.2878 3.7726 2.3329 3.6751 2.3698 3.5725 2.3973 3.4665 2.4361 3.3168 2.4571 3.1601 2.4571 2.9996 2.4571 2.8395 2.4361 2.6827 2.3973 2.533 2.3695 2.4273 2.3329 2.3247 2.2878 2.2272 2.3777 2.2124 2.4701 2.2048 2.5642 2.2048 2.8729 2.2048 3.1626 2.2873 3.4112 2.431L3.4115 2.4307ZM1.7172 2.431C1.8283 2.3669 1.9474 2.3148 2.0727 2.2771 2.1214 2.3754 2.1606 2.4797 2.1886 2.5869 2.2226 2.7179 2.2411 2.8568 2.2411 2.9996 2.2411 3.1428 2.2226 3.2817 2.1886 3.4126 2.1606 3.5206 2.1212 3.6244 2.0724 3.7227 1.95 3.6859 1.8332 3.6354 1.724 3.5734L1.7172 3.5691C1.4771 3.4305 1.2739 3.2343 1.1262 3.0002 1.2725 2.7675 1.4732 2.573 1.7099 2.435ZM1.6024 2.2487C1.5562 2.2799 1.5415 2.3428 1.5698 2.3919" transform="matrix(1 0 0 -1 0 6)"></path>
  </g>
</svg>
