<svg width="64" height="64" viewBox="0 0 64 64" fill="none" xmlns="http://www.w3.org/2000/svg">
<path d="M46.1299 24.75V33" stroke="#5F363A" stroke-width="3" stroke-linecap="round" stroke-linejoin="round"/>
<path d="M42.1104 6.3999C42.5761 5.77892 43.18 5.2749 43.8743 4.92777C44.5686 4.58063 45.3341 4.3999 46.1104 4.3999C46.8866 4.3999 47.6521 4.58063 48.3464 4.92777C49.0407 5.2749 49.6446 5.77892 50.1104 6.3999C52.1104 9.1499 54.1104 12.7799 54.1104 16.3999C54.1104 18.5216 53.2675 20.5565 51.7672 22.0568C50.2669 23.557 48.2321 24.3999 46.1104 24.3999C43.9886 24.3999 41.9538 23.557 40.4535 22.0568C38.9532 20.5565 38.1104 18.5216 38.1104 16.3999C38.1304 12.7799 40.1204 9.1499 42.1104 6.3999Z" fill="#FCBE55" stroke="#5F363A" stroke-width="3" stroke-linecap="round" stroke-linejoin="round"/>
<path d="M49.1299 36C49.1299 34.3431 47.7867 33 46.1299 33C44.473 33 43.1299 34.3431 43.1299 36V56.72C43.1299 58.3769 44.473 59.72 46.1299 59.72C47.7867 59.72 49.1299 58.3769 49.1299 56.72V36Z" fill="#FFFAF0" stroke="#5F363A" stroke-width="3" stroke-linecap="round" stroke-linejoin="round"/>
<path d="M23.8701 4.27979V19.1998C23.8701 19.9286 23.7266 20.6503 23.4476 21.3237C23.1687 21.997 22.7599 22.6089 22.2446 23.1242C21.7292 23.6396 21.1174 24.0484 20.444 24.3273C19.7707 24.6062 19.049 24.7498 18.3201 24.7498H15.4201C14.6913 24.7498 13.9696 24.6062 13.2962 24.3273C12.6229 24.0484 12.011 23.6396 11.4957 23.1242C10.4548 22.0834 9.87012 20.6717 9.87012 19.1998V4.27979" stroke="#5F363A" stroke-width="3" stroke-linecap="round" stroke-linejoin="round"/>
<path d="M16.8701 16.9998V4.27979" stroke="#5F363A" stroke-width="3" stroke-linecap="round" stroke-linejoin="round"/>
<path d="M16.8701 33V24.75" stroke="#5F363A" stroke-width="3" stroke-linecap="round" stroke-linejoin="round"/>
<path d="M19.8701 36C19.8701 34.3431 18.527 33 16.8701 33C15.2133 33 13.8701 34.3431 13.8701 36V56.72C13.8701 58.3769 15.2133 59.72 16.8701 59.72C18.527 59.72 19.8701 58.3769 19.8701 56.72V36Z" fill="#FFFAF0" stroke="#5F363A" stroke-width="3" stroke-linecap="round" stroke-linejoin="round"/>
<path d="M9.87012 17H23.8701V19.2C23.8701 19.9288 23.7266 20.6505 23.4476 21.3239C23.1687 21.9972 22.7599 22.6091 22.2446 23.1244C21.7292 23.6398 21.1174 24.0486 20.444 24.3275C19.7707 24.6064 19.049 24.75 18.3201 24.75H15.4201C13.9482 24.75 12.5365 24.1653 11.4957 23.1244C10.4548 22.0836 9.87012 20.672 9.87012 19.2V17Z" fill="#122268" stroke="#5F363A" stroke-width="3" stroke-linecap="round" stroke-linejoin="round"/>
</svg>
