<svg xmlns="http://www.w3.org/2000/svg" width="1024" height="1024" id="hamburger">
  <path d="M322.578 360.009C285.033 362.178 271.372 324.156 219.375 350.338C186.471 366.906 177.012 363.762 147.212 347.025C138.051 341.88 128.4 337.556 118.245 334.796L108.986 332.676C83.7546 327.229 111.153 304.529 118.813 294.737C92.957 280.317 97.4892 256.865 104.651 232.812C132.341 139.809 225.653 87.2251 319.551 86.8636C326.246 87.2297 333.104 86.7751 339.839 87.1996C407.335 91.4535 480.291 128.475 516.111 186.97C528.151 206.633 546.306 249.739 540.588 272.656C538.207 282.201 530.377 287.921 522.402 292.694L529.497 302.031C533.373 306.921 542.337 316.707 543.163 322.812C544.462 332.414 531.438 332.612 525.263 333.906C512.844 336.509 500.967 341.736 489.891 347.809C481.453 352.435 473.368 357.467 463.958 359.928C441.934 365.687 424.572 350.813 404.832 344.515C366.575 332.309 352.674 357.331 322.578 360.009ZM315.053 102.903C228.731 105.263 138.662 156.699 118.036 245.289C110.829 276.242 117.672 279.423 148.666 287.61C171.795 293.719 195.138 296.358 218.906 298.297L240.469 299.778L311.104 299.865C315.644 299.861 320.746 299.383 325.234 299.858L345.625 299.733C348.098 299.616 350.536 299.148 353.018 299.05L402.031 296.524C422.191 295.011 507.421 287.759 521.838 273.71C529.845 265.907 522.315 242.389 519.468 233.574C493.664 153.68 417.049 109.249 335.869 103.108C329 102.589 321.947 102.877 315.053 102.903ZM505.579 298.594C492.378 300.725 479.538 304.448 466.25 306.265L410.625 312.267L335.417 315.919L240.984 315.938L182.542 310.967C170.562 309.292 158.641 306.788 146.905 303.865L137.276 301.435C136.94 301.359 135.441 300.914 135.172 300.987C133.382 301.476 121.331 315.436 119.619 317.694L119.136 318.344C135.576 322.656 150.011 329.739 164.67 338.173C183.023 348.171 192.809 345.498 210.055 336.826C238.534 322.506 260.296 320.284 290.207 334.392C313.401 345.331 320.23 347.032 342.959 336.673C357.954 329.84 380.785 321.559 397.701 325.876L403.463 327.048C407.11 327.96 410.636 329.186 414.123 330.581L435.818 340.466C452.048 347.319 460.894 345.004 475.896 336.917L493.564 327.599C502.611 323.327 512.008 320.282 521.668 317.735L512.374 305.955C510.504 303.538 508.61 300.64 506.283 298.659L505.579 298.594Z" transform="scale(1.6)"></path>
  <path d="M309.937 168.351C290.323 169.783 291.681 125.488 316.33 118.515 320.076 118.308 323.722 119.346 325.29 123.199 329.37 133.223 316.44 135.649 313.377 143.469 309.629 153.035 324.93 162.548 309.937 168.351zM374.603 184.957L374.281 184.951C355.269 184.98 357.681 141.23 383.315 133.83 387.358 133.563 390.768 135.027 392.368 139.06 396.188 148.694 381.895 151.68 378.762 159.11 375.253 167.434 389.082 179.532 374.603 184.957zM232.407 187.799C225.486 188.029 222.012 183.774 219.93 177.298 215.664 164.031 223.003 158.119 228.434 147.656 231.204 142.319 234.248 138.497 240.202 136.616L240.824 136.559C246.6 136.121 250.245 140.147 250.619 145.743 251.289 155.771 234.597 156.267 235.846 169.26L235.909 169.844C236.598 176.61 242.847 184.525 232.407 187.799zM540.775 445.699L539.154 453.844C531.28 486.372 503.35 509.086 471.18 514.957 462.259 516.585 453.633 516.276 444.58 516.279L187.143 516.265C182.837 516.262 177.304 516.725 173.122 515.658L163.325 513.597C127.659 504.594 100.361 474.525 99.8756 437.42 99.8042 431.958 99.7238 433.617 96.152 430.433 92.6164 427.282 89.5004 423.965 86.8245 420.049 71.2447 397.251 82.2651 364.638 110.247 360.741 121.14 359.377 132.289 365.247 137.23 375.113 138.683 378.014 139.657 381.16 141.371 383.929 152.819 402.427 170.783 391.303 185.541 384.689 205.555 375.721 222.82 377.371 242.969 386.259 251.657 390.092 259.095 394.098 268.863 394.022 294.854 393.819 305.208 368.209 339.448 383.511 360.939 393.115 368.917 398.321 391.289 388.979 422.125 376.103 432.949 374.423 462.958 388.42 474.947 394.012 489.907 398.882 498.735 384.768 500.662 381.687 501.788 378.232 503.409 375.001 514.409 353.085 544.208 358.261 556.008 377.424 566.761 394.888 560.236 417.241 544.989 429.62 542.322 431.786 540.955 431.061 540.965 435.074L540.956 441.225C540.939 442.549 540.641 443.961 540.689 445.257L540.775 445.699zM112.969 376.678C86.326 380.231 92.0206 418.972 121.369 426.359 128.231 428.086 134.825 427.648 141.875 427.655L509.958 427.607C523.881 427.37 536.837 419.752 542.776 406.842 547.592 396.374 544.176 383.911 534.035 378.059 523.628 373.782 519.739 378.394 516.254 387.344 508.466 407.342 485.521 414.184 466.15 407.251 454.741 403.169 444.127 395.512 431.65 395.002 410.322 394.13 392.918 409.628 371.669 410.007 359.64 410.221 349.651 405.998 339.043 400.803 317.137 390.077 312.439 396.215 290.968 405.068 246.115 423.562 232.035 380.566 189.426 400.596 185.497 402.443 181.68 404.605 177.659 406.242 157.985 414.253 134.618 409.627 125.123 389.038 122.397 383.128 120.263 377.287 112.969 376.678zM115.722 441.49C117.592 458.309 126.801 473.758 139.977 484.257 157.496 498.216 174.271 500.271 195.277 500.276L444.698 500.274C469.323 500.267 487.108 497.398 506.122 479.912 516.691 468.951 522.576 457.21 525.007 442.169 516.724 443.716 508.817 443.684 500.434 443.698L129.078 443.689C126.11 443.657 122.584 443.612 119.769 442.624L115.722 441.49z" transform="scale(1.6)"></path>
</svg>
