<svg xmlns="http://www.w3.org/2000/svg" viewBox="0 0 64 64" id="hotdog">
  <path d="M58.18,38.29c-.14-2.64-.79-5.18-1.91-7.55-1.09-2.3-2.58-4.35-4.43-6.1-1.85-1.76-3.99-3.13-6.34-4.09-2.43-.98-5.01-1.48-7.65-1.48h-10.44c-2.66,0-5.25.5-7.69,1.5-2.37.97-4.51,2.35-6.37,4.12-1.85,1.77-3.34,3.84-4.42,6.16-1.11,2.39-1.74,4.95-1.87,7.61l-.25,5.02c-.03.73.08,1.45.34,2.14.25.66.63,1.25,1.12,1.76s1.06.92,1.7,1.2c.67.29,1.39.44,2.12.44h41.01c.75,0,1.48-.15,2.17-.45.65-.29,1.24-.71,1.74-1.23.49-.53.87-1.14,1.13-1.81.26-.7.37-1.44.33-2.19l-.29-5.05ZM12.09,47.15c-.94,0-1.82-.37-2.47-1.06-.65-.68-.99-1.58-.94-2.52l.24-5.02c.48-9.88,8.6-17.62,18.49-17.62h1.91c-1.95.9-3.76,2.11-5.36,3.61-1.15,1.07-2.15,2.28-3.01,3.56-.38-.21-.8-.36-1.25-.43-.66-.09-1.32,0-1.91.25-1.15.48-2.03,1.56-2.31,2.82-.15.66-.14,1.36.03,2.03-.18.03-.36.07-.54.11-.66.17-1.29.47-1.87.89-.57.41-1.06.91-1.46,1.49-.41.61-.69,1.26-.84,1.96-.29,1.37-.05,2.64.69,3.68.35.48.8.91,1.34,1.27.19.13.4.25.62.37-.4.76-.55,1.56-.43,2.31.1.56.34,1.09.72,1.58.21.25.46.49.74.72h-2.39ZM55.65,46.05c-.67.71-1.58,1.1-2.55,1.1H18.76l.63-9.01c.68-9.65,8.79-17.2,18.46-17.2s17.92,7.67,18.47,17.46l.28,5.05c.06.97-.28,1.9-.95,2.6Z"></path>
</svg>
