<svg width="438" height="160" viewBox="0 0 438 160" fill="none" xmlns="http://www.w3.org/2000/svg">
<path d="M429.494 2.2203C421.384 5.10266 415.082 10.672 410.783 18.7328C408.682 22.6411 408.585 24.0578 408.291 47.9961L407.998 73.1557H402.673H397.348V48.6801C397.348 21.7617 397.006 19.8076 391.535 16.9741C385.868 14.0917 377.611 16.2413 374.924 21.322C374.192 22.6411 373.85 31.9233 373.85 48.2404L373.899 73.1557H361.197H348.495V80.4837V87.8118H339.701H330.907V93.1857V98.5596H321.625H312.343V105.399V112.239H204.865H97.3872L97.2895 116.391C97.2407 118.687 97.2895 124.843 97.3872 130.021C97.6804 148.683 91.2805 158.161 78.3343 158.161C65.437 158.161 60.2585 149.465 60.2585 127.627V114.193H49.5107H38.7629V79.6044C38.7629 47.8495 38.6164 44.5275 36.8088 38.8116C31.6792 22.348 17.5605 9.89031 1.14566 7.34992C-1.29702 6.95909 0.217442 7.74075 5.20051 9.45063C19.6123 14.2871 29.725 23.5693 35.0501 36.8086C37.1996 42.2314 37.2973 43.4039 37.5904 78.7739L37.8836 115.17H48.5825H59.2814V129.582C59.3303 151.273 64.6065 159.187 79.0183 159.138C93.0881 159.04 98.3643 150.491 98.3643 127.627V114.193L205.598 113.948L312.832 113.704L313.125 106.62L313.418 99.5366H322.651H331.884V94.1627V88.7889H340.678H349.472V81.9493V75.1098H362.174H374.876V49.1197V23.1296L378.198 19.8076C383.132 14.8734 390.46 15.4596 394.124 21.0289C395.687 23.3739 395.931 26.7936 396.371 49.1686L396.86 74.6213H402.722H408.585L409.073 49.2174C409.562 23.9601 409.562 23.7647 412.2 18.8305C415.522 12.4795 423.241 5.54234 428.761 3.88132C431.106 3.14851 434.135 2.2203 435.454 1.78061L437.897 0.998956L435.454 0.950102C434.135 0.950102 431.399 1.48749 429.494 2.2203Z" fill="black"/>
</svg>
