<svg width="256" height="256" viewBox="0 0 256 256" fill="none" xmlns="http://www.w3.org/2000/svg">
<g clip-path="url(#clip0_284_12)">
<path d="M80 230C87.732 230 94 223.732 94 216C94 208.268 87.732 202 80 202C72.268 202 66 208.268 66 216C66 223.732 72.268 230 80 230Z" fill="black" fill-opacity="0.63"/>
<path d="M184 230C191.732 230 198 223.732 198 216C198 208.268 191.732 202 184 202C176.268 202 170 208.268 170 216C170 223.732 176.268 230 184 230Z" fill="black" fill-opacity="0.63"/>
<path d="M42.2858 72H221.714L195.316 164.396C194.36 167.739 192.342 170.68 189.566 172.774C186.79 174.867 183.408 176 179.931 176H84.0688C80.5919 176 77.2095 174.867 74.4337 172.774C71.6579 170.68 69.6396 167.739 68.6844 164.396L32.5149 37.8022C32.0373 36.1306 31.0282 34.6601 29.6403 33.6132C28.2524 32.5663 26.5612 32 24.8227 32H8" stroke="black" stroke-opacity="0.63" stroke-width="12" stroke-linecap="round" stroke-linejoin="round"/>
</g>
<defs>
<clipPath id="clip0_284_12">
<rect width="256" height="256" fill="white"/>
</clipPath>
</defs>
</svg>
