<svg width="53" height="31" viewBox="0 0 53 31" fill="none" xmlns="http://www.w3.org/2000/svg">
<path d="M52.18 19.2899C52.04 16.6499 51.39 14.1099 50.27 11.7399C49.18 9.43995 47.69 7.38995 45.84 5.63995C43.99 3.87995 41.85 2.50995 39.5 1.54995C37.07 0.569946 34.49 0.0699463 31.85 0.0699463H21.41C18.75 0.0699463 16.16 0.569946 13.72 1.56995C11.35 2.53995 9.20999 3.91995 7.34999 5.68995C5.49999 7.45995 4.00999 9.52995 2.92999 11.8499C1.81999 14.2399 1.18998 16.7999 1.05998 19.4599L0.809985 24.4799C0.779985 25.2099 0.889985 25.9299 1.14999 26.6199C1.39999 27.2799 1.77999 27.8699 2.26999 28.3799C2.75999 28.8899 3.32999 29.2999 3.96999 29.5799C4.63999 29.8699 5.35999 30.0199 6.08999 30.0199H47.1C47.85 30.0199 48.58 29.8699 49.27 29.5699C49.92 29.2799 50.51 28.8599 51.01 28.3399C51.5 27.8099 51.88 27.1999 52.14 26.5299C52.4 25.8299 52.51 25.0899 52.47 24.3399L52.18 19.2899ZM6.08999 28.1499C5.14999 28.1499 4.26998 27.7799 3.61998 27.0899C2.96998 26.4099 2.62999 25.5099 2.67999 24.5699L2.91999 19.5499C3.39999 9.66995 11.52 1.92995 21.41 1.92995H23.32C21.37 2.82995 19.56 4.03995 17.96 5.53995C16.81 6.60995 15.81 7.81995 14.95 9.09995C14.57 8.88995 14.15 8.73995 13.7 8.66995C13.04 8.57995 12.38 8.66995 11.79 8.91995C10.64 9.39995 9.75998 10.4799 9.47998 11.7399C9.32998 12.3999 9.33998 13.0999 9.50998 13.7699C9.32998 13.7999 9.14999 13.8399 8.96999 13.8799C8.30998 14.0499 7.67999 14.3499 7.09999 14.7699C6.52999 15.1799 6.03999 15.6799 5.63999 16.2599C5.22999 16.8699 4.94999 17.5199 4.79999 18.2199C4.50999 19.5899 4.74998 20.8599 5.48998 21.8999C5.83998 22.3799 6.28999 22.8099 6.82999 23.1699C7.01999 23.2999 7.22999 23.4199 7.44999 23.5399C7.04999 24.2999 6.89999 25.0999 7.01999 25.8499C7.11999 26.4099 7.35998 26.9399 7.73998 27.4299C7.94998 27.6799 8.19998 27.9199 8.47998 28.1499H6.08999ZM49.65 27.0499C48.98 27.7599 48.07 28.1499 47.1 28.1499H12.76L13.39 19.1399C14.07 9.48995 22.18 1.93995 31.85 1.93995C41.52 1.93995 49.77 9.60995 50.32 19.3999L50.6 24.4499C50.66 25.4199 50.32 26.3499 49.65 27.0499Z" fill="white"/>
</svg>
