<svg width="64" height="64" viewBox="0 0 64 64" fill="none" xmlns="http://www.w3.org/2000/svg">
<path d="M40.2602 58.63H23.7402C22.4513 58.629 21.1948 58.2258 20.1461 57.4764C19.0974 56.7271 18.3088 55.6691 17.8902 54.45L10.2402 32.11H53.7602L46.1202 54.45C45.7011 55.6707 44.911 56.7298 43.8603 57.4793C42.8096 58.2288 41.5509 58.6311 40.2602 58.63Z" stroke="white" stroke-width="3" stroke-linecap="round" stroke-linejoin="round"/>
<path d="M38.2099 11C47.4499 13 54.7199 19.15 56.9999 26.9C57.1726 27.5139 57.1997 28.1595 57.0791 28.7857C56.9585 29.4119 56.6935 30.0013 56.3052 30.5071C55.9168 31.013 55.4159 31.4212 54.8421 31.6995C54.2683 31.9777 53.6375 32.1183 52.9999 32.11H10.9999C10.3623 32.1183 9.73148 31.9777 9.15769 31.6995C8.58391 31.4212 8.08294 31.013 7.6946 30.5071C7.30626 30.0013 7.04127 29.4119 6.92067 28.7857C6.80007 28.1595 6.8272 27.5139 6.99989 26.9C9.27989 19.16 16.5399 13 25.7599 11" stroke="white" stroke-width="3" stroke-linecap="round" stroke-linejoin="round"/>
<path d="M31.9998 17.85C35.446 17.85 38.2398 15.0563 38.2398 11.61C38.2398 8.16374 35.446 5.37 31.9998 5.37C28.5535 5.37 25.7598 8.16374 25.7598 11.61C25.7598 15.0563 28.5535 17.85 31.9998 17.85Z" stroke="white" stroke-width="3" stroke-linecap="round" stroke-linejoin="round"/>
</svg>
