<svg width="24" height="24" viewBox="0 0 24 24" fill="none" xmlns="http://www.w3.org/2000/svg">
<path d="M17.02 1.5H6.98C3.95348 1.5 1.5 3.95348 1.5 6.98V17.02C1.5 20.0465 3.95348 22.5 6.98 22.5H17.02C20.0465 22.5 22.5 20.0465 22.5 17.02V6.98C22.5 3.95348 20.0465 1.5 17.02 1.5Z" stroke="white" stroke-linecap="round" stroke-linejoin="round"/>
<path d="M12 17.5C15.0376 17.5 17.5 15.0376 17.5 12C17.5 8.96243 15.0376 6.5 12 6.5C8.96243 6.5 6.5 8.96243 6.5 12C6.5 15.0376 8.96243 17.5 12 17.5Z" stroke="white" stroke-linecap="round" stroke-linejoin="round"/>
<path d="M18 5.5C18.2761 5.5 18.5 5.27614 18.5 5C18.5 4.72386 18.2761 4.5 18 4.5C17.7239 4.5 17.5 4.72386 17.5 5C17.5 5.27614 17.7239 5.5 18 5.5Z" stroke="white" stroke-linecap="round" stroke-linejoin="round"/>
</svg>
