<svg width="1024" height="1024" viewBox="0 0 1024 1024" fill="none" xmlns="http://www.w3.org/2000/svg">
<path d="M516.125 576.014C456.053 579.485 434.195 518.65 351 560.541C298.354 587.05 283.219 582.019 235.539 555.24C220.882 547.008 205.44 540.089 189.192 535.673L174.378 532.281C134.008 523.566 177.845 487.246 190.101 471.579C148.731 448.507 155.983 410.984 167.442 372.499C211.746 223.694 361.045 139.56 511.282 138.982C521.994 139.567 532.967 138.84 543.743 139.519C651.736 146.326 768.466 205.56 825.778 299.152C845.042 330.613 874.09 399.582 864.941 436.25C861.131 451.522 848.603 460.674 835.843 468.31L847.195 483.25C853.397 491.074 867.739 506.731 869.061 516.499C871.139 531.862 850.301 532.179 840.421 534.25C820.551 538.414 801.547 546.777 783.826 556.494C770.325 563.896 757.389 571.947 742.333 575.885C707.095 585.099 679.315 561.301 647.731 551.224C586.52 531.694 564.279 571.729 516.125 576.014ZM504.085 164.645C365.97 168.421 221.859 250.718 188.858 392.462C177.327 441.987 188.275 447.077 237.866 460.176C274.872 469.95 312.221 474.173 350.25 477.275L384.751 479.645L497.767 479.784C505.031 479.777 513.194 479.013 520.375 479.773L553 479.573C556.957 479.386 560.858 478.637 564.829 478.48L643.25 474.438C675.506 472.017 811.874 460.414 834.941 437.936C847.752 425.451 835.704 387.822 831.149 373.718C789.863 245.888 667.279 174.798 537.391 164.973C526.4 164.142 515.115 164.603 504.085 164.645ZM808.927 477.75C787.805 481.16 767.261 487.117 746 490.024L657 499.627L536.667 505.47L385.575 505.501L292.067 497.547C272.899 494.867 253.826 490.861 235.048 486.184L219.642 482.296C219.104 482.174 216.706 481.462 216.275 481.579C213.411 482.362 194.13 504.698 191.391 508.31L190.618 509.35C216.922 516.249 240.018 527.582 263.472 541.077C292.837 557.074 308.495 552.797 336.088 538.921C381.655 516.009 416.474 512.454 464.331 535.027C501.442 552.529 512.368 555.251 548.735 538.677C572.727 527.744 609.256 514.494 636.322 521.402L645.541 523.277C651.376 524.736 657.018 526.697 662.597 528.929L697.309 544.746C723.277 555.71 737.431 552.006 761.434 539.067L789.703 524.158C804.178 517.323 819.213 512.451 834.669 508.376L819.799 489.528C816.807 485.661 813.776 481.024 810.053 477.854L808.927 477.75Z" fill="white"/>
<path d="M495.899 269.362C464.517 271.653 466.69 200.781 506.128 189.624C512.122 189.293 517.955 190.954 520.464 197.118C526.992 213.157 506.304 217.038 501.403 229.55C495.407 244.856 519.888 260.077 495.899 269.362ZM599.365 295.931L598.85 295.922C568.431 295.968 572.29 225.968 613.304 214.128C619.773 213.701 625.229 216.043 627.789 222.496C633.901 237.91 611.032 242.688 606.019 254.576C600.405 267.894 622.531 287.251 599.365 295.931ZM371.851 300.478C360.778 300.846 355.219 294.038 351.888 283.677C345.063 262.45 356.805 252.99 365.495 236.25C369.927 227.71 374.797 221.595 384.323 218.586L385.319 218.494C394.56 217.794 400.392 224.235 400.991 233.189C402.063 249.234 375.355 250.027 377.354 270.816L377.455 271.75C378.557 282.576 388.555 295.24 371.851 300.478ZM865.24 713.118L862.647 726.15C850.048 778.195 805.36 814.537 753.888 823.931C739.615 826.536 725.813 826.041 711.328 826.046L299.429 826.024C292.539 826.019 283.687 826.76 276.995 825.053L261.32 821.755C204.255 807.35 160.578 759.24 159.801 699.872C159.687 691.133 159.558 693.787 153.843 688.693C148.186 683.651 143.201 678.344 138.919 672.078C113.992 635.602 131.624 583.421 176.395 577.186C193.824 575.003 211.663 584.395 219.568 600.181C221.893 604.822 223.451 609.856 226.194 614.286C244.511 643.883 273.253 626.085 296.866 615.502C328.888 601.154 356.512 603.794 388.751 618.014C402.651 624.147 414.552 630.557 430.181 630.435C471.767 630.11 488.333 589.134 543.117 613.618C577.503 628.984 590.267 637.314 626.063 622.366C675.4 601.765 692.719 599.077 740.733 621.472C759.915 630.419 783.851 638.211 797.976 615.629C801.059 610.699 802.861 605.171 805.455 600.002C823.055 564.936 870.733 573.218 889.613 603.878C906.818 631.821 896.378 667.586 871.983 687.392C867.715 690.858 865.528 689.698 865.544 696.118L865.53 705.96C865.503 708.078 865.026 710.338 865.103 712.411L865.24 713.118ZM180.751 602.685C138.122 608.37 147.233 670.355 194.191 682.174C205.17 684.938 215.72 684.237 227 684.248L815.933 684.171C838.21 683.792 858.939 671.603 868.442 650.947C876.147 634.198 870.682 614.258 854.456 604.894C837.805 598.051 831.583 605.43 826.007 619.75C813.546 651.747 776.834 662.694 745.84 651.602C727.586 645.07 710.603 632.819 690.64 632.003C656.515 630.608 628.669 655.405 594.671 656.011C575.424 656.354 559.442 649.597 542.469 641.285C507.419 624.123 499.903 633.944 465.549 648.109C393.784 677.699 371.256 608.906 303.082 640.954C296.795 643.909 290.688 647.368 284.255 649.987C252.776 662.805 215.389 655.403 200.197 622.461C195.835 613.005 192.421 603.659 180.751 602.685ZM185.155 706.384C188.147 733.294 202.882 758.013 223.963 774.811C251.994 797.145 278.834 800.434 312.443 800.442L711.517 800.438C750.917 800.427 779.373 795.837 809.795 767.859C826.706 750.321 836.122 731.536 840.011 707.47C826.759 709.946 814.107 709.894 800.695 709.917L206.525 709.902C201.776 709.851 196.135 709.779 191.631 708.198L185.155 706.384Z" fill="white"/>
</svg>
