<svg width="64" height="64" viewBox="0 0 64 64" fill="none" xmlns="http://www.w3.org/2000/svg">
<path d="M58.18 38.29C58.04 35.65 57.39 33.11 56.27 30.74C55.18 28.44 53.69 26.39 51.84 24.64C49.99 22.88 47.85 21.51 45.5 20.55C43.07 19.57 40.49 19.07 37.85 19.07H27.41C24.75 19.07 22.16 19.57 19.72 20.57C17.35 21.54 15.21 22.92 13.35 24.69C11.5 26.46 10.01 28.53 8.92999 30.85C7.81999 33.24 7.18998 35.8 7.05998 38.46L6.80998 43.48C6.77998 44.21 6.88999 44.93 7.14999 45.62C7.39999 46.28 7.77999 46.87 8.26999 47.38C8.75999 47.89 9.32999 48.3 9.96999 48.58C10.64 48.87 11.36 49.02 12.09 49.02H53.1C53.85 49.02 54.58 48.87 55.27 48.57C55.92 48.28 56.51 47.86 57.01 47.34C57.5 46.81 57.88 46.2 58.14 45.53C58.4 44.83 58.51 44.09 58.47 43.34L58.18 38.29ZM12.09 47.15C11.15 47.15 10.27 46.78 9.61998 46.09C8.96998 45.41 8.62999 44.51 8.67999 43.57L8.91999 38.55C9.39999 28.67 17.52 20.93 27.41 20.93H29.32C27.37 21.83 25.56 23.04 23.96 24.54C22.81 25.61 21.81 26.82 20.95 28.1C20.57 27.89 20.15 27.74 19.7 27.67C19.04 27.58 18.38 27.67 17.79 27.92C16.64 28.4 15.76 29.48 15.48 30.74C15.33 31.4 15.34 32.1 15.51 32.77C15.33 32.8 15.15 32.84 14.97 32.88C14.31 33.05 13.68 33.35 13.1 33.77C12.53 34.18 12.04 34.68 11.64 35.26C11.23 35.87 10.95 36.52 10.8 37.22C10.51 38.59 10.75 39.86 11.49 40.9C11.84 41.38 12.29 41.81 12.83 42.17C13.02 42.3 13.23 42.42 13.45 42.54C13.05 43.3 12.9 44.1 13.02 44.85C13.12 45.41 13.36 45.94 13.74 46.43C13.95 46.68 14.2 46.92 14.48 47.15H12.09ZM55.65 46.05C54.98 46.76 54.07 47.15 53.1 47.15H18.76L19.39 38.14C20.07 28.49 28.18 20.94 37.85 20.94C47.52 20.94 55.77 28.61 56.32 38.4L56.6 43.45C56.66 44.42 56.32 45.35 55.65 46.05Z" fill="white"/>
</svg>
