<svg width="6" height="6" viewBox="0 0 6 6" fill="none" xmlns="http://www.w3.org/2000/svg">
<path d="M4.12824 3.19943C3.96864 3.42533 3.76024 3.61613 3.51904 3.75523C3.23754 3.91773 2.91154 4.01123 2.56404 4.01123C2.21624 4.01123 1.88974 3.91803 1.60874 3.75553L1.60224 3.75133C1.31394 3.58353 1.07334 3.34203 0.906645 3.05403C0.886545 3.01943 0.887945 2.97803 0.906645 2.94573C1.07504 2.65513 1.31824 2.41223 1.60874 2.24443L1.61674 2.24013C1.76554 2.15543 1.92624 2.08963 2.09634 2.04683L2.10424 2.04483C2.25164 2.00833 2.40564 1.98903 2.56404 1.98903C2.91154 1.98903 3.23814 2.08223 3.51904 2.24443L3.52584 2.24863C3.76424 2.38723 3.96974 2.57663 4.12824 2.80053C4.21554 2.67723 4.31724 2.56413 4.43094 2.46433C4.58634 2.32803 4.76464 2.21573 4.95824 2.13553C5.01294 2.11293 5.07644 2.13893 5.09904 2.19363C5.12174 2.24833 5.09564 2.31183 5.04094 2.33453C4.86894 2.40603 4.71044 2.50543 4.57274 2.62653C4.44964 2.73453 4.34194 2.86063 4.25404 3.00013C4.34194 3.13963 4.44964 3.26573 4.57274 3.37373C4.71044 3.49473 4.86894 3.59423 5.04094 3.66573C5.09564 3.68833 5.12174 3.75183 5.09904 3.80663C5.07644 3.86133 5.01294 3.88733 4.95824 3.86473C4.76464 3.78443 4.58634 3.67223 4.43094 3.53583C4.31724 3.43613 4.21554 3.32303 4.12824 3.19943ZM3.41164 3.56903C3.65144 3.43073 3.85444 3.23453 4.00204 2.99983C3.85584 2.76773 3.65514 2.57293 3.41814 2.43493L3.41074 2.43093C3.16214 2.28753 2.87304 2.20503 2.56404 2.20503C2.46994 2.20503 2.37754 2.21263 2.28764 2.22743C2.33274 2.32493 2.36964 2.42753 2.39714 2.53353C2.43594 2.68323 2.45694 2.83993 2.45694 3.00043C2.45694 3.16053 2.43594 3.31733 2.39714 3.46703C2.36934 3.57273 2.33274 3.67533 2.28764 3.77283C2.37754 3.78763 2.46994 3.79523 2.56404 3.79523C2.87274 3.79523 3.16304 3.71273 3.41164 3.56903ZM1.71704 3.56903C1.82814 3.63313 1.94724 3.68523 2.07254 3.72293C2.12124 3.62463 2.16044 3.52033 2.18844 3.41313C2.22244 3.28213 2.24094 3.14323 2.24094 3.00043C2.24094 2.85723 2.22244 2.71833 2.18844 2.58743C2.16044 2.47943 2.12104 2.37563 2.07224 2.27733C1.94984 2.31413 1.83304 2.36463 1.72384 2.42663L1.71704 2.43093C1.47694 2.56953 1.27374 2.76573 1.12604 2.99983C1.27234 3.23253 1.47304 3.42703 1.70974 3.56503L1.71704 3.56903ZM1.60224 3.75133C1.55604 3.72013 1.54134 3.65723 1.56964 3.60813Z" fill="white"/>
</svg>
