<svg width="56" height="85" viewBox="0 0 56 85" fill="none" xmlns="http://www.w3.org/2000/svg">
<path d="M28 0C12.6 0 0 12.4 0 27.7C0 60.3 25.6 82.6 26.7 83.6C27.4 84.2 28.6 84.2 29.3 83.6C30.4 82.6 56 60.2 56 27.7C56 12.4 43.4 0 28 0ZM28 79.3C22.8 74.3 4 54.3 4 27.7C4 14.6 14.8 4 28 4C41.2 4 52 14.6 52 27.7C52 54.3 33.2 74.3 28 79.3ZM28 12C19.2 12 12 19.2 12 28C12 36.8 19.2 44 28 44C36.8 44 44 36.8 44 28C44 19.2 36.8 12 28 12ZM28 40C21.4 40 16 34.6 16 28C16 21.4 21.4 16 28 16C34.6 16 40 21.4 40 28C40 34.6 34.6 40 28 40Z" fill="white"/>
</svg>
