<svg width="512" height="302" viewBox="0 0 512 302" fill="none" xmlns="http://www.w3.org/2000/svg">
<path d="M495.361 0.561035H317.897C308.379 0.561035 300.954 8.84104 301.992 18.302C304.697 42.981 310.749 98.188 316.778 153.192C310.137 152.685 303.538 153.976 297.609 156.986C292.985 137.706 268.144 122.75 246.611 132.225C232.657 107.713 196.942 108.113 183.02 132.235C161.519 122.774 136.694 137.74 132.022 156.993C111.767 146.695 86.0972 157.495 79.9692 179.884C54.7882 168.938 25.8812 189.175 28.9782 217.501C28.3402 217.501 4.84021 217.501 5.97021 217.501C3.02521 217.501 0.637207 219.889 0.637207 222.834C0.637207 225.779 3.02521 228.167 5.97021 228.167H17.9192C20.6822 269.154 54.8182 301.679 96.4942 301.679C199.917 301.679 348.573 301.679 453.944 301.679C468.917 301.679 481.437 290.456 483.067 275.574C487.8 232.395 504.588 79.238 511.268 18.301C512.304 8.84004 504.879 0.561035 495.361 0.561035ZM80.8412 192.629C84.2352 195.157 89.1582 192.872 89.3462 188.577C90.3262 165.954 117.54 155.817 133.431 170.935C137.299 174.61 143.571 170.937 142.282 165.779C138.675 151.357 162.901 131.34 182.521 144.057C185.394 145.908 189.213 144.632 190.408 141.471C198.879 119.109 230.703 119.032 239.203 141.471C240.397 144.628 244.214 145.91 247.09 144.057C266.895 131.234 290.923 151.409 287.329 165.779C286.041 170.93 292.3 174.611 296.18 170.937C312.063 155.816 339.288 165.957 340.268 188.576C340.455 192.858 345.363 195.164 348.773 192.628C367.471 178.767 393.789 195.058 389.821 217.501H39.7902C35.8162 195.021 62.1752 178.8 80.8412 192.629ZM96.4932 291.014C60.6942 291.014 31.2482 263.279 28.5192 228.168H401.09C398.361 263.28 368.916 291.014 333.116 291.014H96.4932ZM472.462 274.414C471.426 283.877 463.465 291.014 453.943 291.014H372.536C394.61 278.201 409.882 255.025 411.692 228.168H423.641C426.586 228.168 428.974 225.78 428.974 222.835C428.974 219.89 426.586 217.502 423.641 217.502C422.963 217.502 399.865 217.502 400.636 217.502C403.685 189.296 374.973 168.884 349.642 179.883C346.714 169.188 338.982 160.151 327.788 155.741L324.256 123.523H489.002L472.462 274.414ZM490.171 112.857H323.087L312.595 17.141C312.244 13.974 314.724 11.227 317.897 11.227H495.362C498.536 11.227 501.015 13.974 500.664 17.141L490.171 112.857Z" fill="white"/>
</svg>
