<svg width="64" height="64" viewBox="0 0 64 64" fill="none" xmlns="http://www.w3.org/2000/svg">
<path d="M37.0498 34C37.4454 34 37.832 33.8827 38.1609 33.6629C38.4898 33.4432 38.7462 33.1308 38.8976 32.7654C39.0489 32.3999 39.0885 31.9978 39.0114 31.6098C38.9342 31.2219 38.7437 30.8655 38.464 30.5858C38.1843 30.3061 37.8279 30.1156 37.44 30.0384C37.052 29.9613 36.6499 30.0009 36.2844 30.1522C35.919 30.3036 35.6066 30.56 35.3869 30.8889C35.1671 31.2178 35.0498 31.6044 35.0498 32C35.0498 32.5304 35.2605 33.0391 35.6356 33.4142C36.0107 33.7893 36.5194 34 37.0498 34Z" fill="white"/>
<path d="M33.9201 37.54C34.6712 37.54 35.2801 36.9311 35.2801 36.18C35.2801 35.4289 34.6712 34.82 33.9201 34.82C33.1689 34.82 32.5601 35.4289 32.5601 36.18C32.5601 36.9311 33.1689 37.54 33.9201 37.54Z" fill="white"/>
<path d="M37 38.87C36.8022 38.87 36.6089 38.9286 36.4444 39.0385C36.28 39.1484 36.1518 39.3046 36.0761 39.4873C36.0004 39.67 35.9806 39.8711 36.0192 40.0651C36.0578 40.2591 36.153 40.4373 36.2929 40.5771C36.4327 40.717 36.6109 40.8122 36.8049 40.8508C36.9989 40.8894 37.2 40.8696 37.3827 40.7939C37.5654 40.7182 37.7216 40.59 37.8315 40.4256C37.9414 40.2611 38 40.0678 38 39.87C38 39.6048 37.8946 39.3504 37.7071 39.1629C37.5196 38.9754 37.2652 38.87 37 38.87Z" fill="white"/>
<path d="M47.17 16.92L46.45 15.47C46.2006 14.9704 45.8166 14.5503 45.3414 14.257C44.8662 13.9637 44.3185 13.8089 43.76 13.81H41C41 13.0144 40.684 12.2513 40.1214 11.6887C39.5587 11.1261 38.7957 10.81 38 10.81H33.44L35.69 4.81H37.79L44.61 7.73C44.7318 7.78729 44.8639 7.8194 44.9984 7.82442C45.1329 7.82944 45.267 7.80726 45.3927 7.75921C45.5184 7.71117 45.6331 7.63824 45.73 7.54479C45.8269 7.45135 45.9039 7.33932 45.9564 7.21541C46.0089 7.0915 46.0359 6.95827 46.0357 6.82368C46.0355 6.6891 46.0081 6.55594 45.9553 6.43219C45.9024 6.30843 45.8251 6.19662 45.7279 6.10346C45.6308 6.01029 45.5159 5.93769 45.39 5.89L38.39 2.89C38.2667 2.83747 38.1341 2.81026 38 2.81H35C34.7957 2.80934 34.5961 2.87128 34.428 2.98749C34.26 3.1037 34.1315 3.2686 34.06 3.46L31.31 10.81H26C25.2044 10.81 24.4413 11.1261 23.8787 11.6887C23.3161 12.2513 23 13.0144 23 13.81H20.24C19.6816 13.8089 19.1339 13.9637 18.6587 14.257C18.1834 14.5503 17.7995 14.9704 17.55 15.47L16.83 16.92C16.6786 17.2248 16.6074 17.5633 16.6233 17.9033C16.6392 18.2434 16.7416 18.5737 16.9208 18.8631C17.1001 19.1525 17.3502 19.3914 17.6475 19.5571C17.9449 19.7228 18.2796 19.8098 18.62 19.81H19.05L20.78 55.72C20.78 55.72 20.78 55.78 20.78 55.81C20.7753 55.8599 20.7753 55.9101 20.78 55.96L21 59.3C21.0282 59.8111 21.2513 60.292 21.6233 60.6436C21.9954 60.9952 22.4881 61.1908 23 61.19H41.1C41.6136 61.1906 42.1077 60.9937 42.48 60.64C42.8524 60.2863 43.0744 59.8029 43.1 59.29L43.21 56C43.2147 55.9501 43.2147 55.8999 43.21 55.85C43.21 55.85 43.21 55.79 43.21 55.76L45 19.81H45.43C45.7704 19.8098 46.1052 19.7228 46.4025 19.5571C46.6999 19.3914 46.95 19.1525 47.1293 18.8631C47.3085 18.5737 47.4109 18.2434 47.4268 17.9033C47.4427 17.5633 47.3715 17.2248 47.22 16.92H47.17ZM26 12.81H38C38.2653 12.81 38.5196 12.9154 38.7071 13.1029C38.8947 13.2904 39 13.5448 39 13.81H25C25 13.5448 25.1054 13.2904 25.2929 13.1029C25.4805 12.9154 25.7348 12.81 26 12.81ZM23 59.2L22.88 56.81H25C25.2652 56.81 25.5196 56.7046 25.7071 56.5171C25.8947 56.3296 26 56.0752 26 55.81C26 55.5448 25.8947 55.2904 25.7071 55.1029C25.5196 54.9154 25.2652 54.81 25 54.81H22.74L21.33 25.63L21.66 25.86C22.3797 26.4353 23.2737 26.7487 24.195 26.7487C25.1164 26.7487 26.0103 26.4353 26.73 25.86C27.107 25.5315 27.5901 25.3505 28.09 25.3505C28.59 25.3505 29.0731 25.5315 29.45 25.86C30.1697 26.4353 31.0637 26.7487 31.985 26.7487C32.9064 26.7487 33.8003 26.4353 34.52 25.86C34.8934 25.5256 35.3788 25.3436 35.88 25.35C36.3847 25.341 36.8741 25.5232 37.25 25.86C37.9642 26.4432 38.858 26.7618 39.78 26.7618C40.7021 26.7618 41.5958 26.4432 42.31 25.86L42.67 25.62L41.26 54.81H29.32C29.0548 54.81 28.8005 54.9154 28.6129 55.1029C28.4254 55.2904 28.32 55.5448 28.32 55.81C28.32 56.0752 28.4254 56.3296 28.6129 56.5171C28.8005 56.7046 29.0548 56.81 29.32 56.81H41.17L41.05 59.19L23 59.2ZM39.52 17.81C39.2548 17.81 39.0005 17.9154 38.8129 18.1029C38.6254 18.2904 38.52 18.5448 38.52 18.81C38.52 19.0752 38.6254 19.3296 38.8129 19.5171C39.0005 19.7046 39.2548 19.81 39.52 19.81H43L42.83 23.44C42.2348 23.5843 41.6784 23.8574 41.2 24.24C40.819 24.568 40.3328 24.7484 39.83 24.7484C39.3272 24.7484 38.8411 24.568 38.46 24.24C37.7458 23.6568 36.8521 23.3382 35.93 23.3382C35.008 23.3382 34.1142 23.6568 33.4 24.24C33.0241 24.5768 32.5347 24.759 32.03 24.75C31.5288 24.7564 31.0434 24.5744 30.67 24.24C29.9558 23.6568 29.0621 23.3382 28.14 23.3382C27.218 23.3382 26.3242 23.6568 25.61 24.24C25.2315 24.5692 24.7467 24.7506 24.245 24.7506C23.7434 24.7506 23.2586 24.5692 22.88 24.24C22.4098 23.8646 21.864 23.5951 21.28 23.45L21.1 19.81H34.86C35.1253 19.81 35.3796 19.7046 35.5671 19.5171C35.7547 19.3296 35.86 19.0752 35.86 18.81C35.86 18.5448 35.7547 18.2904 35.5671 18.1029C35.3796 17.9154 35.1253 17.81 34.86 17.81H18.62L19.34 16.36C19.4239 16.1936 19.5526 16.0539 19.7116 15.9567C19.8706 15.8595 20.0537 15.8087 20.24 15.81H43.76C43.9464 15.8087 44.1294 15.8595 44.2884 15.9567C44.4475 16.0539 44.5762 16.1936 44.66 16.36L45.38 17.81H39.52Z" fill="white"/>
</svg>
