<?xml version="1.0" encoding="UTF-8"?>
<svg xmlns="http://www.w3.org/2000/svg" fill="none" viewBox="0 0 1024 1024"><path d="M516.13 576.01c-60.08 3.48-81.94-57.36-165.13-15.47-52.65 26.51-67.78 21.48-115.46-5.3-14.66-8.23-30.1-15.15-46.35-19.57l-14.81-3.39c-40.37-8.71 3.46-45.03 15.72-60.7-41.37-23.07-34.12-60.6-22.66-99.08 44.31-148.81 193.61-232.94 343.84-233.52 10.71.59 21.69-.14 32.46.54 108 6.81 224.73 66.04 282.04 159.63 19.26 31.46 48.31 100.43 39.16 137.1-3.81 15.27-16.34 24.42-29.1 32.06l11.36 14.94c6.2 7.82 20.54 23.48 21.86 33.25 2.08 15.36-18.76 15.68-28.64 17.75-19.87 4.16-38.87 12.53-56.59 22.24-13.5 7.41-26.44 15.46-41.5 19.39-35.23 9.22-63.01-14.58-94.6-24.66-61.21-19.53-83.45 20.51-131.6 24.79m-12.05-411.36c-138.11 3.77-282.22 86.07-315.22 227.81-11.53 49.53-.58 54.62 49.01 67.72 37 9.77 74.35 13.99 112.38 17.09l34.5 2.37 113.02.14c7.26 0 15.42-.77 22.61-.01l32.62-.2c3.96-.18 7.86-.93 11.83-1.09l78.42-4.04c32.26-2.42 168.62-14.03 191.69-36.5 12.81-12.49.76-50.12-3.79-64.22-41.29-127.83-163.87-198.92-293.76-208.75-10.99-.83-22.27-.37-33.31-.32m304.85 313.1c-21.13 3.41-41.67 9.37-62.93 12.27l-89 9.61-120.33 5.84-151.1.03-93.5-7.95c-19.17-2.68-38.24-6.69-57.02-11.37l-15.41-3.88c-.54-.13-2.93-.84-3.36-.72-2.87.78-22.15 23.12-24.89 26.73l-.77 1.04c26.3 6.9 49.4 18.23 72.85 31.73 29.37 15.99 45.03 11.72 72.62-2.16 45.56-22.91 80.38-26.47 128.24-3.89 37.11 17.5 48.04 20.22 84.41 3.65 23.99-10.94 60.52-24.19 87.58-17.28l9.22 1.88a133 133 0 0117.06 5.65l34.71 15.82c25.97 10.96 40.12 7.26 64.12-5.68l28.27-14.91c14.48-6.84 29.51-11.71 44.97-15.78l-14.87-18.85c-2.99-3.87-6.02-8.51-9.75-11.68z" fill="white"/><path d="M495.9 269.36c-31.38 2.29-29.21-68.58 10.23-79.74 5.99-.33 11.83 1.33 14.33 7.5 6.53 16.04-14.16 19.92-19.06 32.43-5.99 15.31 18.49 30.53-5.5 39.81m103.47 26.57-.52-.01c-30.42.05-26.56-69.95 14.45-81.79 6.47-.43 11.93 1.91 14.49 8.37 6.11 15.41-16.76 20.19-21.77 32.08-5.62 13.31 16.51 32.67-6.65 41.35m-227.52 4.55c-11.07.37-16.63-6.44-19.96-16.8-6.83-21.23 4.92-30.69 13.61-47.43 4.43-8.54 9.3-14.66 18.82-17.66l1-.1c9.24-.7 15.07 5.75 15.67 14.7 1.07 16.04-25.63 16.84-23.64 37.63l.1.93c1.11 10.83 11.11 23.49-5.6 28.73m493.39 412.64-2.59 13.03c-12.6 52.05-57.29 88.39-108.76 97.78-14.27 2.61-28.08 2.11-42.56 2.12l-411.9-.03c-6.89 0-15.74.74-22.43-.97l-15.68-3.3c-57.07-14.4-100.74-62.51-101.52-121.88-.11-8.74-.24-6.08-5.96-11.18a91 91 0 01-14.92-16.61c-24.93-36.48-7.3-88.66 37.48-94.89 17.42-2.19 35.26 7.2 43.17 22.99 2.32 4.64 3.88 9.68 6.62 14.11 18.32 29.59 47.06 11.8 70.68 1.21 32.02-14.35 59.64-11.71 91.88 2.51 13.9 6.14 25.8 12.55 41.43 12.42 41.59-.32 58.15-41.3 112.94-16.81 34.38 15.36 47.15 23.69 82.94 8.75 49.34-20.61 66.66-23.29 114.67-.9 19.18 8.95 43.12 16.74 57.25-5.84 3.08-4.93 4.88-10.46 7.48-15.63 17.59-35.06 65.27-26.78 84.15 3.88 17.21 27.94 6.77 63.71-17.63 83.51-4.26 3.47-6.45 2.31-6.44 8.73l-.01 9.84c-.03 2.12-.5 4.38-.43 6.45zM180.75 602.68c-42.63 5.69-33.52 67.68 13.44 79.49 10.98 2.77 21.53 2.07 32.81 2.08l588.93-.08c22.28-.38 43.01-12.57 52.51-33.22 7.71-16.75 2.24-36.69-13.98-46.06-16.66-6.84-22.88.54-28.45 14.86-12.46 32-49.18 42.94-80.17 31.85-18.25-6.53-35.24-18.78-55.2-19.6-34.13-1.39-61.97 23.4-95.97 24.01-19.25.34-35.23-6.41-52.2-14.73-35.05-17.16-42.57-7.34-76.92 6.83-71.77 29.59-94.29-39.2-162.47-7.16-6.28 2.96-12.39 6.42-18.83 9.04-31.47 12.81-68.86 5.41-84.05-27.53-4.36-9.46-7.78-18.8-19.45-19.78m4.41 103.7c2.99 26.91 17.72 51.63 38.8 68.43 28.03 22.33 54.87 25.62 88.48 25.63h399.08c39.4-.01 67.85-4.6 98.27-32.58 16.92-17.54 26.33-36.32 30.22-60.39-13.25 2.48-25.9 2.42-39.31 2.45l-594.17-.02c-4.75-.05-10.4-.12-14.9-1.7z" fill="white"/></svg>