<svg width="278" height="278" viewBox="0 0 278 278" fill="none" xmlns="http://www.w3.org/2000/svg">
<path d="M140.12 156.379C123.811 157.321 117.877 140.805 95.291 152.178C80.9983 159.375 76.8895 158.009 63.9452 150.739C59.9659 148.504 55.7737 146.626 51.3626 145.427L47.3407 144.506C36.3809 142.14 48.282 132.28 51.6093 128.026C40.3781 121.763 42.3468 111.576 45.4577 101.128C57.4856 60.7296 98.018 37.8885 138.805 37.7314C141.713 37.8905 144.692 37.693 147.618 37.8774C176.936 39.7252 208.626 55.8064 224.186 81.2152C229.416 89.7563 237.302 108.48 234.818 118.435C233.784 122.581 230.382 125.066 226.918 127.139L230 131.195C231.684 133.319 235.578 137.57 235.936 140.222C236.501 144.392 230.843 144.478 228.161 145.04C222.767 146.171 217.607 148.442 212.796 151.08C209.131 153.089 205.619 155.275 201.532 156.344C191.965 158.845 184.423 152.384 175.849 149.649C159.231 144.347 153.193 155.216 140.12 156.379ZM136.851 44.6986C99.355 45.7237 60.2313 68.0662 51.2718 106.547C48.1413 119.993 51.1137 121.374 64.5767 124.931C74.6234 127.584 84.763 128.731 95.0872 129.573L104.454 130.216L135.136 130.254C137.108 130.252 139.324 130.045 141.273 130.251L150.131 130.197C151.205 130.146 152.264 129.942 153.342 129.9L174.632 128.803C183.389 128.145 220.411 124.995 226.673 118.893C230.151 115.503 226.881 105.288 225.644 101.459C214.435 66.7548 181.156 47.4551 145.893 44.7876C142.909 44.5622 139.846 44.6873 136.851 44.6986ZM219.611 129.702C213.877 130.627 208.299 132.245 202.527 133.034L178.365 135.641L145.697 137.227L104.677 137.236L79.2916 135.076C74.0878 134.349 68.9096 133.261 63.8118 131.991L59.6292 130.936C59.4833 130.903 58.8321 130.71 58.7153 130.741C57.9378 130.954 52.7031 137.018 51.9595 137.998L51.7496 138.281C58.8908 140.154 65.161 143.23 71.5285 146.894C79.5006 151.237 83.7514 150.076 91.2426 146.309C103.613 140.089 113.066 139.123 126.059 145.252C136.134 150.003 139.1 150.742 148.973 146.242C155.486 143.274 165.403 139.677 172.751 141.552L175.254 142.062C176.838 142.458 178.37 142.99 179.885 143.596L189.308 147.89C196.358 150.867 200.201 149.861 206.717 146.348L214.392 142.301C218.322 140.445 222.403 139.123 226.6 138.016L222.562 132.899C221.75 131.849 220.927 130.591 219.917 129.73L219.611 129.702Z" fill="white"/>
<path d="M134.629 73.1274C126.109 73.7494 126.699 54.5087 137.406 51.4798C139.033 51.3899 140.617 51.8408 141.298 53.5145C143.07 57.8686 137.454 58.9224 136.123 62.3192C134.495 66.4745 141.141 70.6067 134.629 73.1274ZM162.718 80.3406L162.578 80.338C154.32 80.3506 155.368 61.3467 166.502 58.1323C168.259 58.0163 169.74 58.6522 170.435 60.4041C172.094 64.5888 165.886 65.8859 164.525 69.1133C163 72.729 169.007 77.9841 162.718 80.3406ZM100.952 81.5751C97.9454 81.675 96.4363 79.8267 95.532 77.0137C93.6789 71.2509 96.8668 68.6828 99.2259 64.138C100.429 61.8197 101.751 60.1595 104.338 59.3425L104.608 59.3177C107.117 59.1275 108.7 60.8762 108.863 63.307C109.154 67.6629 101.903 67.8784 102.445 73.5222L102.473 73.7759C102.772 76.7149 105.487 80.1529 100.952 81.5751ZM234.899 193.6L234.195 197.138C230.775 211.268 218.643 221.134 204.669 223.684C200.794 224.391 197.047 224.257 193.114 224.259L81.2901 224.253C79.4197 224.251 77.0163 224.452 75.1998 223.989L70.9442 223.094C55.4518 219.183 43.5942 206.122 43.3834 190.004C43.3523 187.632 43.3174 188.352 41.7659 186.969C40.2301 185.601 38.8766 184.16 37.7143 182.459C30.9468 172.556 35.7338 158.39 47.8884 156.697C52.6201 156.104 57.4629 158.654 59.6092 162.94C60.2403 164.2 60.6634 165.566 61.4079 166.769C66.3806 174.804 74.1838 169.972 80.5943 167.099C89.2878 163.204 96.7873 163.92 105.54 167.781C109.313 169.446 112.544 171.186 116.787 171.153C128.077 171.065 132.575 159.941 147.448 166.587C156.783 170.759 160.248 173.021 169.966 168.963C183.36 163.37 188.062 162.64 201.097 168.72C206.305 171.149 212.803 173.264 216.638 167.133C217.475 165.795 217.964 164.294 218.668 162.891C223.446 153.371 236.39 155.62 241.516 163.943C246.187 171.529 243.352 181.239 236.729 186.616C235.571 187.557 234.977 187.242 234.982 188.985L234.978 191.657C234.97 192.232 234.841 192.845 234.862 193.408L234.899 193.6ZM49.0708 163.619C37.4978 165.163 39.9713 181.991 52.7196 185.2C55.7002 185.95 58.5645 185.759 61.6268 185.763L221.513 185.742C227.561 185.639 233.188 182.33 235.768 176.722C237.86 172.175 236.376 166.761 231.971 164.219C227.451 162.361 225.762 164.365 224.248 168.252C220.865 176.939 210.898 179.911 202.484 176.9C197.528 175.126 192.918 171.8 187.498 171.579C178.234 171.2 170.674 177.932 161.444 178.097C156.219 178.19 151.88 176.355 147.272 174.099C137.756 169.44 135.716 172.106 126.389 175.951C106.906 183.985 100.79 165.308 82.2818 174.009C80.5751 174.811 78.9171 175.75 77.1705 176.461C68.6246 179.941 58.4746 177.932 54.3502 168.988C53.1661 166.421 52.2391 163.884 49.0708 163.619ZM50.2666 191.772C51.0789 199.078 55.0791 205.789 60.8024 210.349C68.4122 216.412 75.6989 217.305 84.8233 217.307L193.166 217.306C203.862 217.303 211.587 216.057 219.847 208.462C224.438 203.7 226.994 198.6 228.05 192.067C224.452 192.739 221.017 192.725 217.376 192.731L56.0682 192.727C54.7789 192.713 53.2473 192.694 52.0246 192.265L50.2666 191.772Z" fill="white"/>
</svg>
