<svg width="277" height="277" viewBox="0 0 277 277" fill="none" xmlns="http://www.w3.org/2000/svg">
<g clip-path="url(#clip0_298_7)">
<path d="M92.3408 138.5C92.3408 113.004 113.004 92.3296 138.5 92.3296C163.996 92.3296 184.67 113.004 184.67 138.5C184.67 163.996 163.996 184.67 138.5 184.67C113.004 184.67 92.3408 163.996 92.3408 138.5ZM67.3817 138.5C67.3817 177.779 99.221 209.618 138.5 209.618C177.779 209.618 209.618 177.779 209.618 138.5C209.618 99.221 177.779 67.3817 138.5 67.3817C99.221 67.3817 67.3817 99.221 67.3817 138.5ZM195.813 64.5625C195.813 73.7361 203.253 81.187 212.438 81.187C221.611 81.187 229.062 73.7361 229.062 64.5625C229.062 55.3888 221.622 47.9492 212.438 47.9492C203.253 47.9492 195.813 55.3888 195.813 64.5625ZM82.5406 251.235C69.0374 250.62 61.6985 248.371 56.8208 246.47C50.3545 243.952 45.7453 240.954 40.8899 236.11C36.0458 231.266 33.0364 226.657 30.5304 220.19C28.6286 215.313 26.3799 207.974 25.7646 194.471C25.0933 179.871 24.9591 175.486 24.9591 138.5C24.9591 101.514 25.1045 97.1402 25.7646 82.5294C26.3799 69.0263 28.6397 61.6985 30.5304 56.8096C33.0476 50.3433 36.0458 45.7341 40.8899 40.8788C45.7341 36.0346 50.3433 33.0252 56.8208 30.5192C61.6985 28.6174 69.0374 26.3687 82.5406 25.7534C97.1402 25.0821 101.526 24.9479 138.5 24.9479C175.486 24.9479 179.86 25.0933 194.471 25.7534C207.974 26.3687 215.301 28.6286 220.19 30.5192C226.657 33.0252 231.266 36.0346 236.121 40.8788C240.965 45.7229 243.964 50.3433 246.481 56.8096C248.383 61.6873 250.631 69.0263 251.247 82.5294C251.918 97.1402 252.052 101.514 252.052 138.5C252.052 175.474 251.918 179.86 251.247 194.471C250.631 207.974 248.371 215.313 246.481 220.19C243.964 226.657 240.965 231.266 236.121 236.11C231.277 240.954 226.657 243.952 220.19 246.47C215.313 248.371 207.974 250.62 194.471 251.235C179.871 251.907 175.486 252.041 138.5 252.041C101.526 252.041 97.1402 251.907 82.5406 251.235ZM81.3995 0.839055C66.6545 1.5103 56.5859 3.84847 47.7814 7.27181C38.6748 10.807 30.9555 15.5505 23.2474 23.2474C15.5505 30.9443 10.807 38.6637 7.27181 47.7814C3.84847 56.5859 1.5103 66.6545 0.839055 81.3995C0.156624 96.1669 0 100.888 0 138.5C0 176.112 0.156624 180.833 0.839055 195.6C1.5103 210.345 3.84847 220.414 7.27181 229.219C10.807 238.325 15.5393 246.056 23.2474 253.753C30.9443 261.45 38.6637 266.182 47.7814 269.728C56.5971 273.152 66.6545 275.49 81.3995 276.161C96.1781 276.832 100.888 277 138.5 277C176.123 277 180.833 276.843 195.6 276.161C210.345 275.49 220.414 273.152 229.219 269.728C238.325 266.182 246.044 261.45 253.753 253.753C261.45 246.056 266.182 238.325 269.728 229.219C273.152 220.414 275.501 210.345 276.161 195.6C276.832 180.822 276.989 176.112 276.989 138.5C276.989 100.888 276.832 96.1669 276.161 81.3995C275.49 66.6545 273.152 56.5859 269.728 47.7814C266.182 38.6748 261.45 30.9555 253.753 23.2474C246.056 15.5505 238.325 10.807 229.23 7.27181C220.414 3.84847 210.345 1.49911 195.612 0.839055C180.844 0.167811 176.123 0 138.511 0C100.888 0 96.1781 0.156624 81.3995 0.839055Z" fill="white"/>
</g>
<defs>
<clipPath id="clip0_298_7">
<rect width="277" height="277" fill="white"/>
</clipPath>
</defs>
</svg>
