<svg width="183" height="189" viewBox="0 0 183 189" fill="none" xmlns="http://www.w3.org/2000/svg">
<path d="M156.261 26.0453C139.637 9.42168 117.51 0.261719 93.9879 0.261719C70.466 0.261719 48.3389 9.42168 31.6775 26.0453C15.0539 42.6689 5.89393 64.7961 5.89393 88.318C5.89393 106.6 11.3974 124.015 21.839 138.867L1.2951 183.348C0.616588 184.78 0.91815 186.477 2.04901 187.607C2.76522 188.324 3.7453 188.701 4.72538 188.701C5.25311 188.701 5.78085 188.588 6.30858 188.361L53.5031 166.573C65.9426 173.019 79.8898 176.412 94.0256 176.412C117.547 176.412 139.675 167.252 156.298 150.628C172.922 134.005 182.082 111.878 182.082 88.3557C182.082 64.8338 172.922 42.7066 156.261 26.0453ZM93.9879 168.911C80.493 168.911 67.1488 165.518 55.4256 159.072C54.3701 158.507 53.1262 158.469 52.033 158.959L12.4529 177.241L29.642 140.074C30.2074 138.83 30.0566 137.36 29.265 136.266C18.9365 122.319 13.4707 105.771 13.4707 88.3934C13.433 43.9506 49.5451 7.80078 93.9879 7.80078C138.393 7.80078 174.543 43.9506 174.543 88.3557C174.543 132.761 138.393 168.911 93.9879 168.911Z" fill="white"/>
<path d="M126.896 100.833C126.293 100.72 125.69 100.607 125.049 100.531C121.996 100.154 118.528 99.7397 114.871 101.323C112.647 102.265 110.235 104.075 108.124 106.299C104.279 104.565 100.924 102.642 98.0967 100.644C94.8172 98.3072 92.2162 95.8193 90.3314 93.2184C90.2561 93.1053 90.143 92.9922 90.0676 92.8791C85.9965 88.4311 82.9432 81.6082 80.9453 72.599C83.5463 71.0158 85.808 69.0557 87.2027 67.0578C89.4645 63.816 89.8037 60.348 90.0676 57.257C90.1053 56.6539 90.143 56.0131 90.143 55.41C90.143 47.7578 87.165 41.0857 82.227 37.6178C78.4197 34.9414 73.4063 34.9414 69.7875 34.9414H69.6744C66.6965 34.9414 63.7939 35.5822 61.0799 36.8262C57.8004 38.334 54.9732 40.6711 52.9377 43.6113C50.8645 46.5516 49.5828 49.9818 49.2813 53.5629C48.4897 62.1197 49.4697 70.4881 52.1461 78.4795C54.9732 86.8855 59.7982 99.325 68.8828 110.03C75.4795 118.587 84.4887 126.202 96.3627 133.251C103.638 137.548 111.629 140.262 120.111 141.28C120.94 141.393 121.769 141.431 122.599 141.431C125.35 141.431 128.102 140.865 130.628 139.772C133.945 138.377 136.81 136.078 138.958 133.213C140.73 130.876 142.012 128.087 142.615 125.184L142.653 125.071C143.406 121.528 144.462 116.627 142.615 112.33C140.24 106.713 134.36 102.416 126.896 100.833ZM135.264 123.45L135.227 123.563C134.85 125.372 134.058 127.144 132.927 128.614C131.57 130.424 129.723 131.856 127.65 132.761C125.577 133.665 123.277 133.967 121.015 133.703C113.552 132.798 106.54 130.424 100.208 126.692C89.1252 120.133 80.8322 113.121 74.801 105.281C74.7633 105.243 74.7256 105.168 74.6879 105.13C66.3949 95.4047 61.9469 83.8322 59.3082 75.9916C56.9334 68.9803 56.1041 61.6674 56.7826 54.166C56.9711 51.9043 57.8004 49.718 59.082 47.8709C60.4014 46.0238 62.173 44.5537 64.2463 43.5736C65.9803 42.782 67.7897 42.3674 69.6744 42.3674H69.8252C69.8629 42.3674 69.9006 42.3674 69.9383 42.3674C72.69 42.3674 76.0826 42.4051 77.892 43.6867C81.3977 46.1369 82.6039 51.4897 82.6039 55.3346C82.6039 55.7115 82.6039 56.1262 82.5662 56.5031C82.3023 59.3303 82.1139 61.102 81.0207 62.6098C79.9275 64.1553 77.5904 65.927 75.0648 67.0955C73.4816 67.8117 72.6147 69.508 72.9539 71.2043C75.1402 82.8521 78.9475 91.7482 84.3002 97.7041C86.6373 100.946 89.8037 103.962 93.6863 106.713C97.5689 109.465 102.281 112.028 107.709 114.29C109.292 114.969 111.139 114.441 112.157 113.084C113.816 110.86 116.002 108.975 117.774 108.221C119.47 107.505 121.279 107.656 124.069 107.995C124.483 108.033 124.86 108.108 125.237 108.183C128.969 108.975 133.945 111.312 135.641 115.232C136.584 117.343 135.867 120.736 135.264 123.45Z" fill="white"/>
</svg>
