<svg width="44" height="56" viewBox="0 0 44 56" fill="none" xmlns="http://www.w3.org/2000/svg">
<path d="M22.222 0.00325916C19.5054 -0.0854927 17.056 1.6811 16.2897 4.29036C15.5234 6.89962 16.6274 9.71682 18.9601 11.1126C18.9724 11.1194 18.9847 11.1259 18.9972 11.1321V12.1927C15.2836 12.7011 11.8641 14.1347 8.97936 16.2591L7.16982 14.4485C7.15961 14.4386 7.14919 14.4288 7.13856 14.4192C7.09172 13.7184 6.81548 13.0295 6.28554 12.4993C5.12284 11.336 3.20647 11.336 2.04377 12.4993L0.987714 13.5618C-0.174986 14.7252 -0.174987 16.6446 0.987714 17.8079C1.51536 18.3358 2.1995 18.6107 2.89681 18.6595C2.90697 18.6708 2.91739 18.6818 2.92806 18.6926L4.67708 20.4426C1.75103 24.1793 0 28.8789 0 33.9875C0 46.1313 9.86237 56.0012 21.9995 56.0012C34.1365 56.0012 44.0009 46.1313 44.0009 33.9875C44.0009 28.7845 42.1861 24.0046 39.1618 20.2356L40.7019 18.6927C40.7119 18.6824 40.7216 18.672 40.731 18.6614C41.4322 18.6149 42.1194 18.3386 42.6499 17.8079C43.8126 16.6445 43.8126 14.7251 42.6499 13.5618L41.5881 12.4993C40.4254 11.336 38.5091 11.336 37.3464 12.4993C36.8169 13.0291 36.5406 13.7171 36.4933 14.4173C36.482 14.4275 36.4709 14.4379 36.4601 14.4485L34.8047 16.1048C31.9642 14.0652 28.6198 12.6879 24.9958 12.1927V11.1439C27.248 9.84646 28.4229 7.22592 27.8497 4.66731C27.2552 2.0136 24.9386 0.0920114 22.222 0.00325916ZM22.1556 2.00325C23.9716 2.06258 25.5061 3.33678 25.9035 5.11067C26.1898 6.38829 25.8232 7.67533 24.9958 8.60871V7.98176C24.9968 7.71655 24.8925 7.4618 24.7058 7.27353C24.5191 7.08527 24.2653 6.97891 24.0003 6.97785H20.0006C19.8687 6.97735 19.738 7.00297 19.616 7.05324C19.494 7.10352 19.3832 7.17745 19.29 7.27077C19.1967 7.36409 19.1228 7.47496 19.0726 7.59698C19.0223 7.71901 18.9967 7.84978 18.9972 7.98176V8.55598C18.1445 7.5571 17.8217 6.17603 18.2086 4.85872C18.7208 3.11454 20.3397 1.94393 22.1556 2.00325ZM20.9961 8.97785H23.0028V11.9837H20.9961V8.97785ZM4.16758 13.6146C4.42068 13.6146 4.67412 13.7151 4.87617 13.9173C5.27785 14.3192 5.27887 14.9231 4.88207 15.3274L4.34526 15.8626L3.81431 16.3899C3.4102 16.7943 2.80123 16.7943 2.39713 16.3899C1.99302 15.9856 1.99302 15.3841 2.39713 14.9798L3.45904 13.9173C3.66109 13.7151 3.91447 13.6146 4.16758 13.6146ZM39.4663 13.6146C39.7175 13.6146 39.9689 13.7151 40.171 13.9173L41.2329 14.9798C41.637 15.3841 41.637 15.9856 41.2329 16.3899C40.8288 16.7943 40.2217 16.7943 39.8176 16.3899L38.7616 15.3353C38.7605 15.3342 38.7607 15.3325 38.7596 15.3314C38.3587 14.927 38.3585 14.3206 38.7616 13.9173C38.9637 13.7151 39.215 13.6146 39.4663 13.6146ZM21.9994 13.9837C33.0563 13.9837 42.002 22.9247 42.002 33.9876C42.002 45.0504 33.0563 54.0012 21.9994 54.0012C10.9426 54.0012 1.99887 45.0504 1.99887 33.9876C1.99887 22.9247 10.9426 13.9837 21.9994 13.9837ZM21.9994 15.9837C12.0713 15.9837 3.99776 24.0539 3.99776 33.9876C3.99776 43.9212 12.0713 51.9992 21.9994 51.9992C31.9276 51.9992 39.9953 43.9212 39.9953 33.9876C39.9953 24.0539 31.9276 15.9837 21.9994 15.9837ZM6.46318 16.5677L7.41968 17.5247C6.92109 17.9669 6.44355 18.4321 5.98688 18.9173L5.05381 17.9837L5.22949 17.8079L5.45398 17.5813L6.46318 16.5677ZM37.1687 16.5677L37.3464 16.7435L37.8773 17.2747L38.4083 17.8079C38.4113 17.8109 38.4151 17.8127 38.4181 17.8157L38.586 17.9837L37.8384 18.7317C37.3751 18.2509 36.8908 17.7921 36.386 17.3548L37.1687 16.5677ZM20.9961 18.0345V19.9856C20.9932 20.1188 21.0168 20.2513 21.0657 20.3752C21.1146 20.4991 21.1878 20.612 21.2809 20.7072C21.374 20.8024 21.4851 20.8781 21.6079 20.9298C21.7306 20.9814 21.8624 21.008 21.9955 21.008C22.1287 21.008 22.2605 20.9814 22.3832 20.9298C22.5059 20.8781 22.6171 20.8024 22.7102 20.7072C22.8033 20.612 22.8765 20.4991 22.9254 20.3752C22.9743 20.2513 22.9979 20.1188 22.995 19.9856V18.0345C31.0439 18.5293 37.4491 24.9381 37.9437 32.9915H35.9956C35.9637 32.9899 35.9318 32.9899 35.8999 32.9915C35.639 33.0098 35.3957 33.1296 35.2219 33.3253C35.0482 33.5209 34.958 33.7768 34.9705 34.0382C34.983 34.2996 35.0972 34.5458 35.2888 34.7239C35.4804 34.9021 35.7341 34.9981 35.9956 34.9915H37.9437C37.4455 43.0416 31.0413 49.4533 22.995 49.9485V47.9992C22.9976 47.8655 22.9733 47.7325 22.9237 47.6083C22.874 47.4841 22.7999 47.3711 22.7058 47.276C22.6117 47.1809 22.4995 47.1057 22.3758 47.0548C22.2521 47.0039 22.1195 46.9784 21.9858 46.9797C21.8537 46.981 21.7232 47.0084 21.6018 47.0605C21.4804 47.1126 21.3705 47.1882 21.2784 47.283C21.1864 47.3778 21.1141 47.4899 21.0656 47.6128C21.0172 47.7358 20.9935 47.8671 20.9961 47.9992V49.9485C12.9529 49.4496 6.54592 43.0391 6.0474 34.9915H8.00334C8.13645 34.9944 8.26881 34.9707 8.39265 34.9218C8.51648 34.8729 8.6293 34.7997 8.72449 34.7065C8.81967 34.6134 8.89529 34.5021 8.94693 34.3793C8.99856 34.2565 9.02516 34.1247 9.02516 33.9915C9.02516 33.8582 8.99856 33.7264 8.94693 33.6036C8.89529 33.4808 8.81967 33.3695 8.72449 33.2764C8.6293 33.1832 8.51648 33.1101 8.39265 33.0611C8.26881 33.0122 8.13645 32.9885 8.00334 32.9915H6.0474C6.54227 24.9407 12.9503 18.5329 20.9961 18.0345ZM28.7515 23.1009C28.4914 23.1024 28.2421 23.2054 28.0566 23.388L22.708 28.7473C22.4739 28.7062 22.2369 28.6809 21.9994 28.6809C20.9739 28.6809 19.9516 29.062 19.1749 29.8391C17.6214 31.3934 17.6214 33.947 19.1749 35.5012C20.7283 37.0555 23.2726 37.0555 24.826 35.5012C25.6343 34.6925 26.0126 33.6144 25.9797 32.5462L31.5918 26.9231C31.7773 26.7358 31.8815 26.4828 31.8815 26.219C31.8815 25.9553 31.7773 25.7022 31.5918 25.5149L29.4738 23.388C29.3787 23.2943 29.2657 23.2206 29.1417 23.1713C29.0177 23.122 28.885 23.098 28.7515 23.1009ZM28.7651 25.5149L29.4737 26.2219L25.2905 30.4094C25.154 30.2096 25.0028 30.016 24.826 29.8391C24.7604 29.7735 24.6842 29.7273 24.6152 29.6673L28.7651 25.5149ZM21.9994 30.6653C22.5103 30.6653 23.0219 30.8621 23.4166 31.2571C24.2062 32.0471 24.2062 33.2952 23.4166 34.0852C22.6271 34.8752 21.3738 34.8752 20.5842 34.0852C19.7947 33.2952 19.7947 32.0471 20.5842 31.2571C20.979 30.8621 21.4886 30.6653 21.9994 30.6653Z" fill="#FCBE55"/>
</svg>
