<svg xmlns="http://www.w3.org/2000/svg" viewBox="0 0 512 512" id="iran">
  <path fill="#f0f0f0" d="M0 85.337h512v341.326H0z"></path>
  <path fill="#6da544" d="M0 85.337h512v113.775H0z"></path>
  <path fill="#d80027" d="M0 312.888h512v113.775H0zM300.345 220.383h-17.863c.148 1.963.232 3.944.232 5.936 0 13.207-3.301 26.01-9.057 35.122-1.775 2.812-4.759 6.78-8.753 9.456v-50.514h-17.809v50.514c-3.994-2.677-6.977-6.646-8.753-9.456-5.756-9.113-9.056-21.915-9.056-35.122 0-1.992.085-3.974.232-5.936h-17.863a100.953 100.953 0 0 0-.177 5.936c.001 36.617 19.557 65.299 44.523 65.299s44.522-28.682 44.522-65.299a102.71 102.71 0 0 0-.178-5.936z"></path>
  <path fill="#f0f0f0" d="M44.522 184.275h22.261v24.421H44.522zM0 184.275h22.261v24.421H0zM89.043 184.275h22.261v24.421H89.043zM133.565 184.275h22.261v24.421h-22.261zM178.087 184.275h22.261v24.421h-22.261zM222.609 184.275h22.261v24.421h-22.261zM267.13 184.275h22.261v24.421H267.13zM311.652 184.275h22.261v24.421h-22.261zM356.174 184.275h22.261v24.421h-22.261zM400.696 184.275h22.261v24.421h-22.261zM445.217 184.275h22.261v24.421h-22.261zM489.739 184.275H512v24.421h-22.261zM44.522 302.191h22.261v25.534H44.522zM0 302.191h22.261v25.534H0zM89.043 302.191h22.261v25.534H89.043zM133.565 302.191h22.261v25.534h-22.261zM178.087 302.191h22.261v25.534h-22.261zM222.609 302.191h22.261v25.534h-22.261zM267.13 302.191h22.261v25.534H267.13zM311.652 302.191h22.261v25.534h-22.261zM356.174 302.191h22.261v25.534h-22.261zM400.696 302.191h22.261v25.534h-22.261zM445.217 302.191h22.261v25.534h-22.261zM489.739 302.191H512v25.534h-22.261z"></path>
</svg>
